<?xml version="1.0" encoding="UTF-8" standalone="no"?><svg xmlns="http://www.w3.org/2000/svg" xmlns:xlink="http://www.w3.org/1999/xlink" clip-rule="evenodd" stroke-miterlimit="10" viewBox="0 0 159 80"><desc>SVG generated by Keynote</desc><defs></defs><g transform="matrix(1.00, 0.00, -0.00, -1.00, 0.0, 80.0)"><image xlink:href="2E7B8DA69BFED1D3081836C309CA36F8.png" width="155.00" height="52.00" transform="matrix(1.00, 0.00, -0.00, -0.99, 1.7, 63.8)" opacity="0.50"></image><path d="M 7.0 61.0 L 152.0 61.0 L 152.0 19.0 L 7.0 19.0 Z M 6.7 60.8 " fill="#79754B"></path><g><clipPath id="clip0x6080028b2e40"><path d="M 4.5 18.6 L 154.3 18.6 L 154.3 61.1 L 4.5 61.1 Z M 4.5 18.6 "></path></clipPath><g clip-path="url(#clip0x6080028b2e40)"><text xml:space="preserve" font-family="Helvetica,Helvetica" font-size="25.0" fill="#FEFFFE" transform="matrix(1.00, 0.00, -0.00, -1.00, 22.6, 30.6)">V</text><text xml:space="preserve" font-family="Helvetica,Helvetica" font-size="25.0" fill="#FEFFFE" transform="matrix(1.00, 0.00, -0.00, -1.00, 38.8, 30.6)">i</text><text xml:space="preserve" font-family="Helvetica,Helvetica" font-size="25.0" fill="#FEFFFE" transform="matrix(1.00, 0.00, -0.00, -1.00, 44.4, 30.6)">d</text><text xml:space="preserve" font-family="Helvetica,Helvetica" font-size="25.0" fill="#FEFFFE" transform="matrix(1.00, 0.00, -0.00, -1.00, 58.3, 30.6)">e</text><text xml:space="preserve" font-family="Helvetica,Helvetica" font-size="25.0" fill="#FEFFFE" transform="matrix(1.00, 0.00, -0.00, -1.00, 72.2, 30.6)">o</text><text xml:space="preserve" font-family="Helvetica,Helvetica" font-size="25.0" fill="#FEFFFE" transform="matrix(1.00, 0.00, -0.00, -1.00, 86.1, 30.6)"> </text><text xml:space="preserve" font-family="Helvetica,Helvetica" font-size="25.0" fill="#FEFFFE" transform="matrix(1.00, 0.00, -0.00, -1.00, 93.1, 30.6)">-</text><text xml:space="preserve" font-family="Helvetica,Helvetica" font-size="25.0" fill="#FEFFFE" transform="matrix(1.00, 0.00, -0.00, -1.00, 101.4, 30.6)"> </text><text xml:space="preserve" font-family="Helvetica,Helvetica" font-size="25.0" fill="#FEFFFE" transform="matrix(1.00, 0.00, -0.00, -1.00, 108.3, 30.6)">#</text><text xml:space="preserve" font-family="Helvetica,Helvetica" font-size="25.0" fill="#FEFFFE" transform="matrix(1.00, 0.00, -0.00, -1.00, 122.2, 30.6)">3</text></g></g><image xlink:href="9E7B27DB8BF22D26CFC3D71269D08A1D.png" width="606.00" height="74.00" transform="matrix(0.24, 0.00, -0.00, -0.24, 6.7, 19.3)"></image></g></svg>