<?xml version="1.0" encoding="UTF-8" standalone="no"?><svg xmlns="http://www.w3.org/2000/svg" xmlns:xlink="http://www.w3.org/1999/xlink" clip-rule="evenodd" stroke-miterlimit="10" viewBox="0 0 340 598"><desc>SVG generated by Keynote</desc><defs></defs><g transform="matrix(1.00, 0.00, -0.00, -1.00, 0.0, 598.0)"><g><clipPath id="clip0x6000028a3360"><path d="M 0.4 0.0 L 340.0 0.0 L 340.0 598.0 L 0.4 598.0 Z M 0.4 0.0 "></path></clipPath><g clip-path="url(#clip0x6000028a3360)"><image xlink:href="../../BE03AB4A-F5E0-4685-80C7-20DCBC62631F/assets/E5BC6485FDBC90128B240599589CBB31.png" width="2326.00" height="4096.00" transform="matrix(0.15, 0.00, -0.00, -0.15, 0.0, 598.0)"></image></g></g><g><clipPath id="clip0x608001aa7980"><path d="M 57.0 455.4 L 291.6 455.4 L 291.6 510.6 L 57.0 510.6 Z M 57.0 455.4 "></path></clipPath><g clip-path="url(#clip0x608001aa7980)"><text xml:space="preserve" font-family="GillSans-Light,Gill Sans" font-size="32.0" fill="#525252" transform="matrix(1.00, 0.00, -0.00, -1.00, 89.6, 472.1)">R</text><text xml:space="preserve" font-family="GillSans-Light,Gill Sans" font-size="32.0" fill="#525252" transform="matrix(1.00, 0.00, -0.00, -1.00, 107.9, 472.1)">i</text><text xml:space="preserve" font-family="GillSans-Light,Gill Sans" font-size="32.0" fill="#525252" transform="matrix(1.00, 0.00, -0.00, -1.00, 113.9, 472.1)">c</text><text xml:space="preserve" font-family="GillSans-Light,Gill Sans" font-size="32.0" fill="#525252" transform="matrix(1.00, 0.00, -0.00, -1.00, 127.3, 472.1)">e</text><text xml:space="preserve" font-family="GillSans-Light,Gill Sans" font-size="32.0" fill="#525252" transform="matrix(1.00, 0.00, -0.00, -1.00, 142.6, 472.1)"> </text><text xml:space="preserve" font-family="GillSans-Light,Gill Sans" font-size="32.0" fill="#525252" transform="matrix(1.00, 0.00, -0.00, -1.00, 151.5, 472.1)">F</text><text xml:space="preserve" font-family="GillSans-Light,Gill Sans" font-size="32.0" fill="#525252" transform="matrix(1.00, 0.00, -0.00, -1.00, 165.5, 472.1)">e</text><text xml:space="preserve" font-family="GillSans-Light,Gill Sans" font-size="32.0" fill="#525252" transform="matrix(1.00, 0.00, -0.00, -1.00, 180.8, 472.1)">r</text><text xml:space="preserve" font-family="GillSans-Light,Gill Sans" font-size="32.0" fill="#525252" transform="matrix(1.00, 0.00, -0.00, -1.00, 194.1, 472.1)">t</text><text xml:space="preserve" font-family="GillSans-Light,Gill Sans" font-size="32.0" fill="#525252" transform="matrix(1.00, 0.00, -0.00, -1.00, 203.7, 472.1)">i</text><text xml:space="preserve" font-family="GillSans-Light,Gill Sans" font-size="32.0" fill="#525252" transform="matrix(1.00, 0.00, -0.00, -1.00, 209.7, 472.1)">l</text><text xml:space="preserve" font-family="GillSans-Light,Gill Sans" font-size="32.0" fill="#525252" transform="matrix(1.00, 0.00, -0.00, -1.00, 215.7, 472.1)">i</text><text xml:space="preserve" font-family="GillSans-Light,Gill Sans" font-size="32.0" fill="#525252" transform="matrix(1.00, 0.00, -0.00, -1.00, 221.8, 472.1)">s</text><text xml:space="preserve" font-family="GillSans-Light,Gill Sans" font-size="32.0" fill="#525252" transform="matrix(1.00, 0.00, -0.00, -1.00, 233.1, 472.1)">e</text><text xml:space="preserve" font-family="GillSans-Light,Gill Sans" font-size="32.0" fill="#525252" transform="matrix(1.00, 0.00, -0.00, -1.00, 248.4, 472.1)">r</text></g></g><g><clipPath id="clip0x608002caf900"><path d="M 35.2 465.2 L 71.6 465.2 L 71.6 501.5 L 35.2 501.5 Z M 35.2 465.2 "></path></clipPath><g clip-path="url(#clip0x608002caf900)"><image xlink:href="../../BE03AB4A-F5E0-4685-80C7-20DCBC62631F/assets/860D9470BEBE730C4B6C8AC19D18E4A1.png" width="128.00" height="128.00" transform="matrix(0.29, 0.00, -0.00, -0.29, 35.0, 502.0)"></image></g></g><g><clipPath id="clip0x6000028b6fe0"><path d="M 19.2 448.8 L 321.3 448.8 L 321.3 452.8 L 19.2 452.8 Z M 19.2 448.8 "></path></clipPath><g clip-path="url(#clip0x6000028b6fe0)"><path d="M -0.2 -0.2 L 299.8 -0.2 " fill="none" stroke="#595E5D" stroke-width="2.00" transform="matrix(1.00, 0.00, 0.00, -1.00, 20.2, 450.8)"></path></g></g><g><clipPath id="clip0x6000026b67a0"><path d="M 32.0 354.4 L 308.4 354.4 L 308.4 438.5 L 32.0 438.5 Z M 32.0 354.4 "></path></clipPath><g clip-path="url(#clip0x6000026b67a0)"><image xlink:href="../../0190F97F-859F-422B-B628-629B837B8515/assets/F40F616BBC26A717574373025ECEE50D.png" width="274.00" height="66.00" transform="matrix(1.00, 0.00, -0.00, -1.00, 33.0, 437.5)" opacity="0.50"></image><path d="M 38.0 434.0 L 302.0 434.0 L 302.0 379.0 L 38.0 379.0 Z M 38.0 434.5 " fill="#78889F"></path><image xlink:href="../../0190F97F-859F-422B-B628-629B837B8515/assets/53742FC0C2FBAC3AC496FC10593E4902.png" width="1102.00" height="98.00" transform="matrix(0.24, 0.00, -0.00, -0.24, 38.0, 378.7)"></image></g></g><g><clipPath id="clip0x608002ca0000"><path d="M 35.8 378.7 L 304.7 378.7 L 304.7 434.5 L 35.8 434.5 Z M 35.8 378.7 "></path></clipPath><g clip-path="url(#clip0x608002ca0000)"><text xml:space="preserve" font-family="Helvetica,Helvetica" font-size="25.0" fill="#FEFFFE" transform="matrix(1.00, 0.00, -0.00, -1.00, 113.5, 397.2)">V</text><text xml:space="preserve" font-family="Helvetica,Helvetica" font-size="25.0" fill="#FEFFFE" transform="matrix(1.00, 0.00, -0.00, -1.00, 129.7, 397.2)">i</text><text xml:space="preserve" font-family="Helvetica,Helvetica" font-size="25.0" fill="#FEFFFE" transform="matrix(1.00, 0.00, -0.00, -1.00, 135.2, 397.2)">d</text><text xml:space="preserve" font-family="Helvetica,Helvetica" font-size="25.0" fill="#FEFFFE" transform="matrix(1.00, 0.00, -0.00, -1.00, 149.2, 397.2)">e</text><text xml:space="preserve" font-family="Helvetica,Helvetica" font-size="25.0" fill="#FEFFFE" transform="matrix(1.00, 0.00, -0.00, -1.00, 163.1, 397.2)">o</text><text xml:space="preserve" font-family="Helvetica,Helvetica" font-size="25.0" fill="#FEFFFE" transform="matrix(1.00, 0.00, -0.00, -1.00, 177.0, 397.2)"> </text><text xml:space="preserve" font-family="Helvetica,Helvetica" font-size="25.0" fill="#FEFFFE" transform="matrix(1.00, 0.00, -0.00, -1.00, 183.9, 397.2)">-</text><text xml:space="preserve" font-family="Helvetica,Helvetica" font-size="25.0" fill="#FEFFFE" transform="matrix(1.00, 0.00, -0.00, -1.00, 192.2, 397.2)"> </text><text xml:space="preserve" font-family="Helvetica,Helvetica" font-size="25.0" fill="#FEFFFE" transform="matrix(1.00, 0.00, -0.00, -1.00, 199.2, 397.2)">#</text><text xml:space="preserve" font-family="Helvetica,Helvetica" font-size="25.0" fill="#FEFFFE" transform="matrix(1.00, 0.00, -0.00, -1.00, 213.1, 397.2)">1</text></g></g><g><clipPath id="clip0x608002cacba0"><path d="M 32.0 283.3 L 308.4 283.3 L 308.4 367.4 L 32.0 367.4 Z M 32.0 283.3 "></path></clipPath><g clip-path="url(#clip0x608002cacba0)"><image xlink:href="../../0190F97F-859F-422B-B628-629B837B8515/assets/3D6B2F1B5500233119DE62EF7B49B8BF.png" width="274.00" height="66.00" transform="matrix(1.00, 0.00, -0.00, -1.00, 33.0, 366.4)" opacity="0.50"></image><path d="M 38.0 363.0 L 302.0 363.0 L 302.0 308.0 L 38.0 308.0 Z M 38.0 363.4 " fill="#78889F"></path><image xlink:href="../../0190F97F-859F-422B-B628-629B837B8515/assets/648D6480FAF43C7971D448FF85554D7C.png" width="1102.00" height="98.00" transform="matrix(0.24, 0.00, -0.00, -0.24, 38.0, 307.6)"></image></g></g><g><clipPath id="clip0x608002caf240"><path d="M 35.8 307.6 L 304.7 307.6 L 304.7 363.4 L 35.8 363.4 Z M 35.8 307.6 "></path></clipPath><g clip-path="url(#clip0x608002caf240)"><text xml:space="preserve" font-family="Helvetica,Helvetica" font-size="25.0" fill="#FEFFFE" transform="matrix(1.00, 0.00, -0.00, -1.00, 110.5, 326.1)">A</text><text xml:space="preserve" font-family="Helvetica,Helvetica" font-size="25.0" fill="#FEFFFE" transform="matrix(1.00, 0.00, -0.00, -1.00, 127.1, 326.1)">r</text><text xml:space="preserve" font-family="Helvetica,Helvetica" font-size="25.0" fill="#FEFFFE" transform="matrix(1.00, 0.00, -0.00, -1.00, 135.5, 326.1)">t</text><text xml:space="preserve" font-family="Helvetica,Helvetica" font-size="25.0" fill="#FEFFFE" transform="matrix(1.00, 0.00, -0.00, -1.00, 142.4, 326.1)">i</text><text xml:space="preserve" font-family="Helvetica,Helvetica" font-size="25.0" fill="#FEFFFE" transform="matrix(1.00, 0.00, -0.00, -1.00, 148.0, 326.1)">c</text><text xml:space="preserve" font-family="Helvetica,Helvetica" font-size="25.0" fill="#FEFFFE" transform="matrix(1.00, 0.00, -0.00, -1.00, 160.5, 326.1)">l</text><text xml:space="preserve" font-family="Helvetica,Helvetica" font-size="25.0" fill="#FEFFFE" transform="matrix(1.00, 0.00, -0.00, -1.00, 166.0, 326.1)">e</text><text xml:space="preserve" font-family="Helvetica,Helvetica" font-size="25.0" fill="#FEFFFE" transform="matrix(1.00, 0.00, -0.00, -1.00, 179.9, 326.1)"> </text><text xml:space="preserve" font-family="Helvetica,Helvetica" font-size="25.0" fill="#FEFFFE" transform="matrix(1.00, 0.00, -0.00, -1.00, 186.9, 326.1)">-</text><text xml:space="preserve" font-family="Helvetica,Helvetica" font-size="25.0" fill="#FEFFFE" transform="matrix(1.00, 0.00, -0.00, -1.00, 195.2, 326.1)"> </text><text xml:space="preserve" font-family="Helvetica,Helvetica" font-size="25.0" fill="#FEFFFE" transform="matrix(1.00, 0.00, -0.00, -1.00, 202.1, 326.1)">#</text><text xml:space="preserve" font-family="Helvetica,Helvetica" font-size="25.0" fill="#FEFFFE" transform="matrix(1.00, 0.00, -0.00, -1.00, 216.1, 326.1)">1</text></g></g></g></svg>