<?xml version="1.0" encoding="UTF-8" standalone="no"?><svg xmlns="http://www.w3.org/2000/svg" xmlns:xlink="http://www.w3.org/1999/xlink" clip-rule="evenodd" stroke-miterlimit="10" viewBox="0 0 340 598"><desc>SVG generated by Keynote</desc><defs></defs><g transform="matrix(1.00, 0.00, -0.00, -1.00, 0.0, 598.0)"><g><clipPath id="clip0x6080028b6b00"><path d="M 0.2 0.0 L 339.8 0.0 L 339.8 598.0 L 0.2 598.0 Z M 0.2 0.0 "></path></clipPath><g clip-path="url(#clip0x6080028b6b00)"><image xlink:href="../../BE03AB4A-F5E0-4685-80C7-20DCBC62631F/assets/E5BC6485FDBC90128B240599589CBB31.png" width="2326.00" height="4096.00" transform="matrix(0.15, 0.00, -0.00, -0.15, 0.0, 598.0)"></image></g></g><g><clipPath id="clip0x6080026b0b00"><path d="M 56.8 455.4 L 291.4 455.4 L 291.4 510.6 L 56.8 510.6 Z M 56.8 455.4 "></path></clipPath><g clip-path="url(#clip0x6080026b0b00)"><text xml:space="preserve" font-family="GillSans-Light,Gill Sans" font-size="32.0" fill="#525252" transform="matrix(1.00, 0.00, -0.00, -1.00, 89.4, 472.1)">R</text><text xml:space="preserve" font-family="GillSans-Light,Gill Sans" font-size="32.0" fill="#525252" transform="matrix(1.00, 0.00, -0.00, -1.00, 107.7, 472.1)">i</text><text xml:space="preserve" font-family="GillSans-Light,Gill Sans" font-size="32.0" fill="#525252" transform="matrix(1.00, 0.00, -0.00, -1.00, 113.7, 472.1)">c</text><text xml:space="preserve" font-family="GillSans-Light,Gill Sans" font-size="32.0" fill="#525252" transform="matrix(1.00, 0.00, -0.00, -1.00, 127.1, 472.1)">e</text><text xml:space="preserve" font-family="GillSans-Light,Gill Sans" font-size="32.0" fill="#525252" transform="matrix(1.00, 0.00, -0.00, -1.00, 142.4, 472.1)"> </text><text xml:space="preserve" font-family="GillSans-Light,Gill Sans" font-size="32.0" fill="#525252" transform="matrix(1.00, 0.00, -0.00, -1.00, 151.3, 472.1)">F</text><text xml:space="preserve" font-family="GillSans-Light,Gill Sans" font-size="32.0" fill="#525252" transform="matrix(1.00, 0.00, -0.00, -1.00, 165.3, 472.1)">e</text><text xml:space="preserve" font-family="GillSans-Light,Gill Sans" font-size="32.0" fill="#525252" transform="matrix(1.00, 0.00, -0.00, -1.00, 180.6, 472.1)">r</text><text xml:space="preserve" font-family="GillSans-Light,Gill Sans" font-size="32.0" fill="#525252" transform="matrix(1.00, 0.00, -0.00, -1.00, 193.8, 472.1)">t</text><text xml:space="preserve" font-family="GillSans-Light,Gill Sans" font-size="32.0" fill="#525252" transform="matrix(1.00, 0.00, -0.00, -1.00, 203.5, 472.1)">i</text><text xml:space="preserve" font-family="GillSans-Light,Gill Sans" font-size="32.0" fill="#525252" transform="matrix(1.00, 0.00, -0.00, -1.00, 209.5, 472.1)">l</text><text xml:space="preserve" font-family="GillSans-Light,Gill Sans" font-size="32.0" fill="#525252" transform="matrix(1.00, 0.00, -0.00, -1.00, 215.5, 472.1)">i</text><text xml:space="preserve" font-family="GillSans-Light,Gill Sans" font-size="32.0" fill="#525252" transform="matrix(1.00, 0.00, -0.00, -1.00, 221.5, 472.1)">s</text><text xml:space="preserve" font-family="GillSans-Light,Gill Sans" font-size="32.0" fill="#525252" transform="matrix(1.00, 0.00, -0.00, -1.00, 232.9, 472.1)">e</text><text xml:space="preserve" font-family="GillSans-Light,Gill Sans" font-size="32.0" fill="#525252" transform="matrix(1.00, 0.00, -0.00, -1.00, 248.2, 472.1)">r</text></g></g><g><clipPath id="clip0x6080026a4ec0"><path d="M 35.0 465.2 L 71.3 465.2 L 71.3 501.5 L 35.0 501.5 Z M 35.0 465.2 "></path></clipPath><g clip-path="url(#clip0x6080026a4ec0)"><image xlink:href="../../BE03AB4A-F5E0-4685-80C7-20DCBC62631F/assets/860D9470BEBE730C4B6C8AC19D18E4A1.png" width="128.00" height="128.00" transform="matrix(0.28, 0.00, -0.00, -0.29, 35.0, 502.0)"></image></g></g><g><clipPath id="clip0x6000028ac1e0"><path d="M 19.0 448.8 L 321.0 448.8 L 321.0 452.8 L 19.0 452.8 Z M 19.0 448.8 "></path></clipPath><g clip-path="url(#clip0x6000028ac1e0)"><path d="M 0.0 -0.2 L 300.0 -0.2 " fill="none" stroke="#595E5D" stroke-width="2.00" transform="matrix(1.00, 0.00, 0.00, -1.00, 20.0, 450.8)"></path></g></g><g><clipPath id="clip0x6000024b81e0"><path d="M 31.8 354.4 L 308.2 354.4 L 308.2 438.5 L 31.8 438.5 Z M 31.8 354.4 "></path></clipPath><g clip-path="url(#clip0x6000024b81e0)"><image xlink:href="../../877CE059-56FC-4CC2-9143-6291379B5D6B/assets/32667386846DE21F74EC7B997ECA3AD8.png" width="274.00" height="66.00" transform="matrix(1.00, 0.00, -0.00, -1.00, 32.8, 437.5)" opacity="0.50"></image><path d="M 38.0 434.0 L 302.0 434.0 L 302.0 379.0 L 38.0 379.0 Z M 37.8 434.5 " fill="#78889F"></path><image xlink:href="../../877CE059-56FC-4CC2-9143-6291379B5D6B/assets/74529BB0CB8529D832B846FA83F6B656.png" width="1102.00" height="98.00" transform="matrix(0.24, 0.00, -0.00, -0.24, 37.8, 378.7)"></image></g></g><g><clipPath id="clip0x6080028aeb80"><path d="M 35.6 378.7 L 304.4 378.7 L 304.4 434.5 L 35.6 434.5 Z M 35.6 378.7 "></path></clipPath><g clip-path="url(#clip0x6080028aeb80)"><text xml:space="preserve" font-family="Helvetica,Helvetica" font-size="25.0" fill="#FEFFFE" transform="matrix(1.00, 0.00, -0.00, -1.00, 113.2, 397.2)">V</text><text xml:space="preserve" font-family="Helvetica,Helvetica" font-size="25.0" fill="#FEFFFE" transform="matrix(1.00, 0.00, -0.00, -1.00, 129.5, 397.2)">i</text><text xml:space="preserve" font-family="Helvetica,Helvetica" font-size="25.0" fill="#FEFFFE" transform="matrix(1.00, 0.00, -0.00, -1.00, 135.0, 397.2)">d</text><text xml:space="preserve" font-family="Helvetica,Helvetica" font-size="25.0" fill="#FEFFFE" transform="matrix(1.00, 0.00, -0.00, -1.00, 148.9, 397.2)">e</text><text xml:space="preserve" font-family="Helvetica,Helvetica" font-size="25.0" fill="#FEFFFE" transform="matrix(1.00, 0.00, -0.00, -1.00, 162.8, 397.2)">o</text><text xml:space="preserve" font-family="Helvetica,Helvetica" font-size="25.0" fill="#FEFFFE" transform="matrix(1.00, 0.00, -0.00, -1.00, 176.8, 397.2)"> </text><text xml:space="preserve" font-family="Helvetica,Helvetica" font-size="25.0" fill="#FEFFFE" transform="matrix(1.00, 0.00, -0.00, -1.00, 183.7, 397.2)">-</text><text xml:space="preserve" font-family="Helvetica,Helvetica" font-size="25.0" fill="#FEFFFE" transform="matrix(1.00, 0.00, -0.00, -1.00, 192.0, 397.2)"> </text><text xml:space="preserve" font-family="Helvetica,Helvetica" font-size="25.0" fill="#FEFFFE" transform="matrix(1.00, 0.00, -0.00, -1.00, 199.0, 397.2)">#</text><text xml:space="preserve" font-family="Helvetica,Helvetica" font-size="25.0" fill="#FEFFFE" transform="matrix(1.00, 0.00, -0.00, -1.00, 212.9, 397.2)">1</text></g></g><g><clipPath id="clip0x6000028bab20"><path d="M 31.8 283.3 L 308.2 283.3 L 308.2 367.4 L 31.8 367.4 Z M 31.8 283.3 "></path></clipPath><g clip-path="url(#clip0x6000028bab20)"><image xlink:href="../../877CE059-56FC-4CC2-9143-6291379B5D6B/assets/CD0ECB544A60D74A3E461AFFB9601DF3.png" width="274.00" height="66.00" transform="matrix(1.00, 0.00, -0.00, -1.00, 32.8, 366.4)" opacity="0.50"></image><path d="M 38.0 363.0 L 302.0 363.0 L 302.0 308.0 L 38.0 308.0 Z M 37.8 363.4 " fill="#78889F"></path><image xlink:href="../../877CE059-56FC-4CC2-9143-6291379B5D6B/assets/F429B67E350238B3EA58DCAF6F6BA455.png" width="1102.00" height="98.00" transform="matrix(0.24, 0.00, -0.00, -0.24, 37.8, 307.6)"></image></g></g><g><clipPath id="clip0x6000028acc60"><path d="M 35.6 307.6 L 304.4 307.6 L 304.4 363.4 L 35.6 363.4 Z M 35.6 307.6 "></path></clipPath><g clip-path="url(#clip0x6000028acc60)"><text xml:space="preserve" font-family="Helvetica,Helvetica" font-size="25.0" fill="#FEFFFE" transform="matrix(1.00, 0.00, -0.00, -1.00, 110.3, 326.1)">A</text><text xml:space="preserve" font-family="Helvetica,Helvetica" font-size="25.0" fill="#FEFFFE" transform="matrix(1.00, 0.00, -0.00, -1.00, 126.9, 326.1)">r</text><text xml:space="preserve" font-family="Helvetica,Helvetica" font-size="25.0" fill="#FEFFFE" transform="matrix(1.00, 0.00, -0.00, -1.00, 135.3, 326.1)">t</text><text xml:space="preserve" font-family="Helvetica,Helvetica" font-size="25.0" fill="#FEFFFE" transform="matrix(1.00, 0.00, -0.00, -1.00, 142.2, 326.1)">i</text><text xml:space="preserve" font-family="Helvetica,Helvetica" font-size="25.0" fill="#FEFFFE" transform="matrix(1.00, 0.00, -0.00, -1.00, 147.8, 326.1)">c</text><text xml:space="preserve" font-family="Helvetica,Helvetica" font-size="25.0" fill="#FEFFFE" transform="matrix(1.00, 0.00, -0.00, -1.00, 160.3, 326.1)">l</text><text xml:space="preserve" font-family="Helvetica,Helvetica" font-size="25.0" fill="#FEFFFE" transform="matrix(1.00, 0.00, -0.00, -1.00, 165.8, 326.1)">e</text><text xml:space="preserve" font-family="Helvetica,Helvetica" font-size="25.0" fill="#FEFFFE" transform="matrix(1.00, 0.00, -0.00, -1.00, 179.7, 326.1)"> </text><text xml:space="preserve" font-family="Helvetica,Helvetica" font-size="25.0" fill="#FEFFFE" transform="matrix(1.00, 0.00, -0.00, -1.00, 186.7, 326.1)">-</text><text xml:space="preserve" font-family="Helvetica,Helvetica" font-size="25.0" fill="#FEFFFE" transform="matrix(1.00, 0.00, -0.00, -1.00, 195.0, 326.1)"> </text><text xml:space="preserve" font-family="Helvetica,Helvetica" font-size="25.0" fill="#FEFFFE" transform="matrix(1.00, 0.00, -0.00, -1.00, 201.9, 326.1)">#</text><text xml:space="preserve" font-family="Helvetica,Helvetica" font-size="25.0" fill="#FEFFFE" transform="matrix(1.00, 0.00, -0.00, -1.00, 215.8, 326.1)">1</text></g></g></g></svg>