<?xml version="1.0" encoding="UTF-8" standalone="no"?><svg xmlns="http://www.w3.org/2000/svg" xmlns:xlink="http://www.w3.org/1999/xlink" clip-rule="evenodd" stroke-miterlimit="10" viewBox="0 0 277 105"><desc>SVG generated by Keynote</desc><defs></defs><g transform="matrix(1.00, 0.00, -0.00, -1.00, 0.0, 105.0)"><image xlink:href="../../40390A68-0357-43F3-AF26-439AC5E0289A/assets/C457459D25D5E40164339A7D947963D5.png" width="274.00" height="66.00" transform="matrix(1.00, 0.00, -0.00, -1.00, 1.0, 83.5)" opacity="0.50"></image><path d="M 6.0 81.0 L 270.0 81.0 L 270.0 25.0 L 6.0 25.0 Z M 6.0 80.5 " fill="#79754B"></path><g><clipPath id="clip0x6080030ac840"><path d="M 3.8 24.8 L 272.7 24.8 L 272.7 80.5 L 3.8 80.5 Z M 3.8 24.8 "></path></clipPath><g clip-path="url(#clip0x6080030ac840)"><text xml:space="preserve" font-family="Helvetica,Helvetica" font-size="25.0" fill="#FEFFFE" transform="matrix(1.00, 0.00, -0.00, -1.00, 81.9, 43.3)">N</text><text xml:space="preserve" font-family="Helvetica,Helvetica" font-size="25.0" fill="#FEFFFE" transform="matrix(1.00, 0.00, -0.00, -1.00, 100.0, 43.3)">e</text><text xml:space="preserve" font-family="Helvetica,Helvetica" font-size="25.0" fill="#FEFFFE" transform="matrix(1.00, 0.00, -0.00, -1.00, 113.9, 43.3)">w</text><text xml:space="preserve" font-family="Helvetica,Helvetica" font-size="25.0" fill="#FEFFFE" transform="matrix(1.00, 0.00, -0.00, -1.00, 132.0, 43.3)">s</text><text xml:space="preserve" font-family="Helvetica,Helvetica" font-size="25.0" fill="#FEFFFE" transform="matrix(1.00, 0.00, -0.00, -1.00, 144.5, 43.3)"> </text><text xml:space="preserve" font-family="Helvetica,Helvetica" font-size="25.0" fill="#FEFFFE" transform="matrix(1.00, 0.00, -0.00, -1.00, 151.4, 43.3)">-</text><text xml:space="preserve" font-family="Helvetica,Helvetica" font-size="25.0" fill="#FEFFFE" transform="matrix(1.00, 0.00, -0.00, -1.00, 159.7, 43.3)"> </text><text xml:space="preserve" font-family="Helvetica,Helvetica" font-size="25.0" fill="#FEFFFE" transform="matrix(1.00, 0.00, -0.00, -1.00, 166.7, 43.3)">#</text><text xml:space="preserve" font-family="Helvetica,Helvetica" font-size="25.0" fill="#FEFFFE" transform="matrix(1.00, 0.00, -0.00, -1.00, 180.6, 43.3)">1</text></g></g><image xlink:href="../../4960186A-409F-434A-A3D6-E24CB7CD19C8/assets/F2480CC06ABF9E47FD80298BAE74938E.png" width="1102.00" height="98.00" transform="matrix(0.24, 0.00, -0.00, -0.24, 6.0, 24.8)"></image></g></svg>