<?xml version="1.0" encoding="UTF-8" standalone="no"?><svg xmlns="http://www.w3.org/2000/svg" xmlns:xlink="http://www.w3.org/1999/xlink" clip-rule="evenodd" stroke-miterlimit="10" viewBox="0 0 277 105"><desc>SVG generated by Keynote</desc><defs></defs><g transform="matrix(1.00, 0.00, -0.00, -1.00, 0.0, 105.0)"><image xlink:href="../../4960186A-409F-434A-A3D6-E24CB7CD19C8/assets/F6501C712AA4CE67AE46970BC8947F36.png" width="274.00" height="66.00" transform="matrix(1.00, 0.00, -0.00, -1.00, 1.0, 83.7)" opacity="0.50"></image><path d="M 6.0 81.0 L 270.0 81.0 L 270.0 25.0 L 6.0 25.0 Z M 6.0 80.7 " fill="#79754B"></path><g><clipPath id="clip0x6080030a7aa0"><path d="M 3.8 24.9 L 272.7 24.9 L 272.7 80.7 L 3.8 80.7 Z M 3.8 24.9 "></path></clipPath><g clip-path="url(#clip0x6080030a7aa0)"><text xml:space="preserve" font-family="Helvetica,Helvetica" font-size="25.0" fill="#FEFFFE" transform="matrix(1.00, 0.00, -0.00, -1.00, 81.5, 43.4)">V</text><text xml:space="preserve" font-family="Helvetica,Helvetica" font-size="25.0" fill="#FEFFFE" transform="matrix(1.00, 0.00, -0.00, -1.00, 97.7, 43.4)">i</text><text xml:space="preserve" font-family="Helvetica,Helvetica" font-size="25.0" fill="#FEFFFE" transform="matrix(1.00, 0.00, -0.00, -1.00, 103.2, 43.4)">d</text><text xml:space="preserve" font-family="Helvetica,Helvetica" font-size="25.0" fill="#FEFFFE" transform="matrix(1.00, 0.00, -0.00, -1.00, 117.2, 43.4)">e</text><text xml:space="preserve" font-family="Helvetica,Helvetica" font-size="25.0" fill="#FEFFFE" transform="matrix(1.00, 0.00, -0.00, -1.00, 131.1, 43.4)">o</text><text xml:space="preserve" font-family="Helvetica,Helvetica" font-size="25.0" fill="#FEFFFE" transform="matrix(1.00, 0.00, -0.00, -1.00, 145.0, 43.4)"> </text><text xml:space="preserve" font-family="Helvetica,Helvetica" font-size="25.0" fill="#FEFFFE" transform="matrix(1.00, 0.00, -0.00, -1.00, 151.9, 43.4)">-</text><text xml:space="preserve" font-family="Helvetica,Helvetica" font-size="25.0" fill="#FEFFFE" transform="matrix(1.00, 0.00, -0.00, -1.00, 160.2, 43.4)"> </text><text xml:space="preserve" font-family="Helvetica,Helvetica" font-size="25.0" fill="#FEFFFE" transform="matrix(1.00, 0.00, -0.00, -1.00, 167.2, 43.4)">#</text><text xml:space="preserve" font-family="Helvetica,Helvetica" font-size="25.0" fill="#FEFFFE" transform="matrix(1.00, 0.00, -0.00, -1.00, 181.1, 43.4)">3</text></g></g><image xlink:href="../../4960186A-409F-434A-A3D6-E24CB7CD19C8/assets/9C15434350848C60E2A901C2DC1A71DA.png" width="1102.00" height="98.00" transform="matrix(0.24, 0.00, -0.00, -0.24, 6.0, 24.9)"></image></g></svg>