<?xml version="1.0" encoding="UTF-8" standalone="no"?><svg xmlns="http://www.w3.org/2000/svg" xmlns:xlink="http://www.w3.org/1999/xlink" clip-rule="evenodd" stroke-miterlimit="10" viewBox="0 0 1024 768"><desc>SVG generated by Keynote</desc><defs></defs><g transform="matrix(1.00, 0.00, -0.00, -1.00, 0.0, 768.0)"><g><clipPath id="clip0x608002eac060"><path d="M 0.0 768.0 L 1024.0 768.0 L 1024.0 0.0 L 0.0 0.0 Z M 0.0 768.0 "></path></clipPath><g clip-path="url(#clip0x608002eac060)"><image xlink:href="../../BE03AB4A-F5E0-4685-80C7-20DCBC62631F/assets/574DCE55A4CF432400CBDDDE1DFDFC9B.jpeg" width="2048.00" height="1536.00" transform="matrix(0.50, 0.00, -0.00, -0.50, 0.0, 768.0)"></image></g></g><g><clipPath id="clip0x608002eac4e0"><path d="M 10.4 85.0 L 350.0 85.0 L 350.0 683.0 L 10.4 683.0 Z M 10.4 85.0 "></path></clipPath><g clip-path="url(#clip0x608002eac4e0)"><image xlink:href="../../BE03AB4A-F5E0-4685-80C7-20DCBC62631F/assets/E5BC6485FDBC90128B240599589CBB31.png" width="2326.00" height="4096.00" transform="matrix(0.15, 0.00, -0.00, -0.15, 10.0, 683.0)"></image></g></g><g><clipPath id="clip0x600002ab1ac0"><path d="M 67.0 540.4 L 301.6 540.4 L 301.6 595.6 L 67.0 595.6 Z M 67.0 540.4 "></path></clipPath><g clip-path="url(#clip0x600002ab1ac0)"><text xml:space="preserve" font-family="GillSans-Light,Gill Sans" font-size="32.0" fill="#525252" transform="matrix(1.00, 0.00, -0.00, -1.00, 99.6, 557.1)">R</text><text xml:space="preserve" font-family="GillSans-Light,Gill Sans" font-size="32.0" fill="#525252" transform="matrix(1.00, 0.00, -0.00, -1.00, 117.9, 557.1)">i</text><text xml:space="preserve" font-family="GillSans-Light,Gill Sans" font-size="32.0" fill="#525252" transform="matrix(1.00, 0.00, -0.00, -1.00, 123.9, 557.1)">c</text><text xml:space="preserve" font-family="GillSans-Light,Gill Sans" font-size="32.0" fill="#525252" transform="matrix(1.00, 0.00, -0.00, -1.00, 137.3, 557.1)">e</text><text xml:space="preserve" font-family="GillSans-Light,Gill Sans" font-size="32.0" fill="#525252" transform="matrix(1.00, 0.00, -0.00, -1.00, 152.6, 557.1)"> </text><text xml:space="preserve" font-family="GillSans-Light,Gill Sans" font-size="32.0" fill="#525252" transform="matrix(1.00, 0.00, -0.00, -1.00, 161.5, 557.1)">F</text><text xml:space="preserve" font-family="GillSans-Light,Gill Sans" font-size="32.0" fill="#525252" transform="matrix(1.00, 0.00, -0.00, -1.00, 175.5, 557.1)">e</text><text xml:space="preserve" font-family="GillSans-Light,Gill Sans" font-size="32.0" fill="#525252" transform="matrix(1.00, 0.00, -0.00, -1.00, 190.8, 557.1)">r</text><text xml:space="preserve" font-family="GillSans-Light,Gill Sans" font-size="32.0" fill="#525252" transform="matrix(1.00, 0.00, -0.00, -1.00, 204.1, 557.1)">t</text><text xml:space="preserve" font-family="GillSans-Light,Gill Sans" font-size="32.0" fill="#525252" transform="matrix(1.00, 0.00, -0.00, -1.00, 213.7, 557.1)">i</text><text xml:space="preserve" font-family="GillSans-Light,Gill Sans" font-size="32.0" fill="#525252" transform="matrix(1.00, 0.00, -0.00, -1.00, 219.7, 557.1)">l</text><text xml:space="preserve" font-family="GillSans-Light,Gill Sans" font-size="32.0" fill="#525252" transform="matrix(1.00, 0.00, -0.00, -1.00, 225.7, 557.1)">i</text><text xml:space="preserve" font-family="GillSans-Light,Gill Sans" font-size="32.0" fill="#525252" transform="matrix(1.00, 0.00, -0.00, -1.00, 231.8, 557.1)">s</text><text xml:space="preserve" font-family="GillSans-Light,Gill Sans" font-size="32.0" fill="#525252" transform="matrix(1.00, 0.00, -0.00, -1.00, 243.1, 557.1)">e</text><text xml:space="preserve" font-family="GillSans-Light,Gill Sans" font-size="32.0" fill="#525252" transform="matrix(1.00, 0.00, -0.00, -1.00, 258.4, 557.1)">r</text></g></g><g><clipPath id="clip0x600002ab1ca0"><path d="M 45.2 550.2 L 81.6 550.2 L 81.6 586.5 L 45.2 586.5 Z M 45.2 550.2 "></path></clipPath><g clip-path="url(#clip0x600002ab1ca0)"><image xlink:href="../../BE03AB4A-F5E0-4685-80C7-20DCBC62631F/assets/860D9470BEBE730C4B6C8AC19D18E4A1.png" width="128.00" height="128.00" transform="matrix(0.29, 0.00, -0.00, -0.29, 45.0, 587.0)"></image></g></g><g><clipPath id="clip0x600002ab1d00"><path d="M 29.2 533.8 L 331.3 533.8 L 331.3 537.8 L 29.2 537.8 Z M 29.2 533.8 "></path></clipPath><g clip-path="url(#clip0x600002ab1d00)"><path d="M -0.2 -0.2 L 299.8 -0.2 " fill="none" stroke="#595E5D" stroke-width="2.00" transform="matrix(1.00, 0.00, 0.00, -1.00, 30.2, 535.8)"></path></g></g><g><clipPath id="clip0x600002ab2120"><path d="M 42.0 439.4 L 318.4 439.4 L 318.4 523.5 L 42.0 523.5 Z M 42.0 439.4 "></path></clipPath><g clip-path="url(#clip0x600002ab2120)"><image xlink:href="../../0190F97F-859F-422B-B628-629B837B8515/assets/F40F616BBC26A717574373025ECEE50D.png" width="274.00" height="66.00" transform="matrix(1.00, 0.00, -0.00, -1.00, 43.0, 522.5)" opacity="0.50"></image><path d="M 48.0 519.0 L 312.0 519.0 L 312.0 464.0 L 48.0 464.0 Z M 48.0 519.5 " fill="#78889F"></path><image xlink:href="../../0190F97F-859F-422B-B628-629B837B8515/assets/53742FC0C2FBAC3AC496FC10593E4902.png" width="1102.00" height="98.00" transform="matrix(0.24, 0.00, -0.00, -0.24, 48.0, 463.7)"></image></g></g><g><clipPath id="clip0x600002ab2360"><path d="M 45.8 463.7 L 314.7 463.7 L 314.7 519.5 L 45.8 519.5 Z M 45.8 463.7 "></path></clipPath><g clip-path="url(#clip0x600002ab2360)"><text xml:space="preserve" font-family="Helvetica,Helvetica" font-size="25.0" fill="#FEFFFE" transform="matrix(1.00, 0.00, -0.00, -1.00, 123.5, 482.2)">V</text><text xml:space="preserve" font-family="Helvetica,Helvetica" font-size="25.0" fill="#FEFFFE" transform="matrix(1.00, 0.00, -0.00, -1.00, 139.7, 482.2)">i</text><text xml:space="preserve" font-family="Helvetica,Helvetica" font-size="25.0" fill="#FEFFFE" transform="matrix(1.00, 0.00, -0.00, -1.00, 145.2, 482.2)">d</text><text xml:space="preserve" font-family="Helvetica,Helvetica" font-size="25.0" fill="#FEFFFE" transform="matrix(1.00, 0.00, -0.00, -1.00, 159.2, 482.2)">e</text><text xml:space="preserve" font-family="Helvetica,Helvetica" font-size="25.0" fill="#FEFFFE" transform="matrix(1.00, 0.00, -0.00, -1.00, 173.1, 482.2)">o</text><text xml:space="preserve" font-family="Helvetica,Helvetica" font-size="25.0" fill="#FEFFFE" transform="matrix(1.00, 0.00, -0.00, -1.00, 187.0, 482.2)"> </text><text xml:space="preserve" font-family="Helvetica,Helvetica" font-size="25.0" fill="#FEFFFE" transform="matrix(1.00, 0.00, -0.00, -1.00, 193.9, 482.2)">-</text><text xml:space="preserve" font-family="Helvetica,Helvetica" font-size="25.0" fill="#FEFFFE" transform="matrix(1.00, 0.00, -0.00, -1.00, 202.2, 482.2)"> </text><text xml:space="preserve" font-family="Helvetica,Helvetica" font-size="25.0" fill="#FEFFFE" transform="matrix(1.00, 0.00, -0.00, -1.00, 209.2, 482.2)">#</text><text xml:space="preserve" font-family="Helvetica,Helvetica" font-size="25.0" fill="#FEFFFE" transform="matrix(1.00, 0.00, -0.00, -1.00, 223.1, 482.2)">1</text></g></g><g><clipPath id="clip0x600002ab2900"><path d="M 42.0 368.3 L 318.4 368.3 L 318.4 452.4 L 42.0 452.4 Z M 42.0 368.3 "></path></clipPath><g clip-path="url(#clip0x600002ab2900)"><image xlink:href="../../0190F97F-859F-422B-B628-629B837B8515/assets/3D6B2F1B5500233119DE62EF7B49B8BF.png" width="274.00" height="66.00" transform="matrix(1.00, 0.00, -0.00, -1.00, 43.0, 451.4)" opacity="0.50"></image><path d="M 48.0 448.0 L 312.0 448.0 L 312.0 393.0 L 48.0 393.0 Z M 48.0 448.4 " fill="#78889F"></path><image xlink:href="../../0190F97F-859F-422B-B628-629B837B8515/assets/648D6480FAF43C7971D448FF85554D7C.png" width="1102.00" height="98.00" transform="matrix(0.24, 0.00, -0.00, -0.24, 48.0, 392.6)"></image></g></g><g><clipPath id="clip0x600002ab29c0"><path d="M 45.8 392.6 L 314.7 392.6 L 314.7 448.4 L 45.8 448.4 Z M 45.8 392.6 "></path></clipPath><g clip-path="url(#clip0x600002ab29c0)"><text xml:space="preserve" font-family="Helvetica,Helvetica" font-size="25.0" fill="#FEFFFE" transform="matrix(1.00, 0.00, -0.00, -1.00, 120.5, 411.1)">A</text><text xml:space="preserve" font-family="Helvetica,Helvetica" font-size="25.0" fill="#FEFFFE" transform="matrix(1.00, 0.00, -0.00, -1.00, 137.1, 411.1)">r</text><text xml:space="preserve" font-family="Helvetica,Helvetica" font-size="25.0" fill="#FEFFFE" transform="matrix(1.00, 0.00, -0.00, -1.00, 145.5, 411.1)">t</text><text xml:space="preserve" font-family="Helvetica,Helvetica" font-size="25.0" fill="#FEFFFE" transform="matrix(1.00, 0.00, -0.00, -1.00, 152.4, 411.1)">i</text><text xml:space="preserve" font-family="Helvetica,Helvetica" font-size="25.0" fill="#FEFFFE" transform="matrix(1.00, 0.00, -0.00, -1.00, 158.0, 411.1)">c</text><text xml:space="preserve" font-family="Helvetica,Helvetica" font-size="25.0" fill="#FEFFFE" transform="matrix(1.00, 0.00, -0.00, -1.00, 170.5, 411.1)">l</text><text xml:space="preserve" font-family="Helvetica,Helvetica" font-size="25.0" fill="#FEFFFE" transform="matrix(1.00, 0.00, -0.00, -1.00, 176.0, 411.1)">e</text><text xml:space="preserve" font-family="Helvetica,Helvetica" font-size="25.0" fill="#FEFFFE" transform="matrix(1.00, 0.00, -0.00, -1.00, 189.9, 411.1)"> </text><text xml:space="preserve" font-family="Helvetica,Helvetica" font-size="25.0" fill="#FEFFFE" transform="matrix(1.00, 0.00, -0.00, -1.00, 196.9, 411.1)">-</text><text xml:space="preserve" font-family="Helvetica,Helvetica" font-size="25.0" fill="#FEFFFE" transform="matrix(1.00, 0.00, -0.00, -1.00, 205.2, 411.1)"> </text><text xml:space="preserve" font-family="Helvetica,Helvetica" font-size="25.0" fill="#FEFFFE" transform="matrix(1.00, 0.00, -0.00, -1.00, 212.1, 411.1)">#</text><text xml:space="preserve" font-family="Helvetica,Helvetica" font-size="25.0" fill="#FEFFFE" transform="matrix(1.00, 0.00, -0.00, -1.00, 226.1, 411.1)">1</text></g></g><path d="M 0.0 0.0 L 358.3 0.0 L 359.3 0.0 " fill="none" stroke="#595E5D" stroke-width="2.00" transform="matrix(0.87, 0.50, 0.50, -0.87, 368.3, 412.1)"></path><path d="M 680.7 587.6 L 686.6 596.5 L 675.9 595.9 Z M 680.7 587.6 " fill="#595E5D"></path><image xlink:href="../../BE03AB4A-F5E0-4685-80C7-20DCBC62631F/assets/E5BC6485FDBC90128B240599589CBB31.png" width="2326.00" height="4096.00" transform="matrix(0.08, 0.00, -0.00, -0.08, 704.0, 733.0)"></image><text xml:space="preserve" font-family="GillSans-Light,Gill Sans" font-size="20.0" fill="#525252" transform="matrix(1.00, 0.00, -0.00, -1.00, 756.4, 662.4)">R</text><text xml:space="preserve" font-family="GillSans-Light,Gill Sans" font-size="20.0" fill="#525252" transform="matrix(1.00, 0.00, -0.00, -1.00, 767.9, 662.4)">i</text><text xml:space="preserve" font-family="GillSans-Light,Gill Sans" font-size="20.0" fill="#525252" transform="matrix(1.00, 0.00, -0.00, -1.00, 771.6, 662.4)">c</text><text xml:space="preserve" font-family="GillSans-Light,Gill Sans" font-size="20.0" fill="#525252" transform="matrix(1.00, 0.00, -0.00, -1.00, 780.0, 662.4)">e</text><text xml:space="preserve" font-family="GillSans-Light,Gill Sans" font-size="20.0" fill="#525252" transform="matrix(1.00, 0.00, -0.00, -1.00, 789.6, 662.4)"> </text><text xml:space="preserve" font-family="GillSans-Light,Gill Sans" font-size="20.0" fill="#525252" transform="matrix(1.00, 0.00, -0.00, -1.00, 795.1, 662.4)">F</text><text xml:space="preserve" font-family="GillSans-Light,Gill Sans" font-size="20.0" fill="#525252" transform="matrix(1.00, 0.00, -0.00, -1.00, 803.9, 662.4)">e</text><text xml:space="preserve" font-family="GillSans-Light,Gill Sans" font-size="20.0" fill="#525252" transform="matrix(1.00, 0.00, -0.00, -1.00, 813.4, 662.4)">r</text><text xml:space="preserve" font-family="GillSans-Light,Gill Sans" font-size="20.0" fill="#525252" transform="matrix(1.00, 0.00, -0.00, -1.00, 821.7, 662.4)">t</text><text xml:space="preserve" font-family="GillSans-Light,Gill Sans" font-size="20.0" fill="#525252" transform="matrix(1.00, 0.00, -0.00, -1.00, 827.7, 662.4)">i</text><text xml:space="preserve" font-family="GillSans-Light,Gill Sans" font-size="20.0" fill="#525252" transform="matrix(1.00, 0.00, -0.00, -1.00, 831.5, 662.4)">l</text><text xml:space="preserve" font-family="GillSans-Light,Gill Sans" font-size="20.0" fill="#525252" transform="matrix(1.00, 0.00, -0.00, -1.00, 835.3, 662.4)">i</text><text xml:space="preserve" font-family="GillSans-Light,Gill Sans" font-size="20.0" fill="#525252" transform="matrix(1.00, 0.00, -0.00, -1.00, 839.0, 662.4)">s</text><text xml:space="preserve" font-family="GillSans-Light,Gill Sans" font-size="20.0" fill="#525252" transform="matrix(1.00, 0.00, -0.00, -1.00, 846.1, 662.4)">e</text><text xml:space="preserve" font-family="GillSans-Light,Gill Sans" font-size="20.0" fill="#525252" transform="matrix(1.00, 0.00, -0.00, -1.00, 855.7, 662.4)">r</text><image xlink:href="../../BE03AB4A-F5E0-4685-80C7-20DCBC62631F/assets/860D9470BEBE730C4B6C8AC19D18E4A1.png" width="128.00" height="128.00" transform="matrix(0.23, 0.00, -0.00, -0.23, 722.0, 685.0)"></image><image xlink:href="../../87DE9CDD-2262-43AC-8851-051918EFFB71/assets/B7C415EDC255C8980BB58291F3144A8E.png" width="277.00" height="64.00" transform="matrix(1.00, 0.00, -0.00, -1.01, 41.5, 378.7)" opacity="0.50"></image><path d="M 47.0 376.0 L 314.0 376.0 L 314.0 321.0 L 47.0 321.0 Z M 46.5 375.7 " fill="#79754B"></path><g><clipPath id="clip0x600002ab36e0"><path d="M 44.2 321.3 L 316.2 321.3 L 316.2 375.7 L 44.2 375.7 Z M 44.2 321.3 "></path></clipPath><g clip-path="url(#clip0x600002ab36e0)"><text xml:space="preserve" font-family="Helvetica,Helvetica" font-size="25.0" fill="#FEFFFE" transform="matrix(1.00, 0.00, -0.00, -1.00, 123.5, 339.4)">V</text><text xml:space="preserve" font-family="Helvetica,Helvetica" font-size="25.0" fill="#FEFFFE" transform="matrix(1.00, 0.00, -0.00, -1.00, 139.7, 339.4)">i</text><text xml:space="preserve" font-family="Helvetica,Helvetica" font-size="25.0" fill="#FEFFFE" transform="matrix(1.00, 0.00, -0.00, -1.00, 145.2, 339.4)">d</text><text xml:space="preserve" font-family="Helvetica,Helvetica" font-size="25.0" fill="#FEFFFE" transform="matrix(1.00, 0.00, -0.00, -1.00, 159.2, 339.4)">e</text><text xml:space="preserve" font-family="Helvetica,Helvetica" font-size="25.0" fill="#FEFFFE" transform="matrix(1.00, 0.00, -0.00, -1.00, 173.1, 339.4)">o</text><text xml:space="preserve" font-family="Helvetica,Helvetica" font-size="25.0" fill="#FEFFFE" transform="matrix(1.00, 0.00, -0.00, -1.00, 187.0, 339.4)"> </text><text xml:space="preserve" font-family="Helvetica,Helvetica" font-size="25.0" fill="#FEFFFE" transform="matrix(1.00, 0.00, -0.00, -1.00, 193.9, 339.4)">-</text><text xml:space="preserve" font-family="Helvetica,Helvetica" font-size="25.0" fill="#FEFFFE" transform="matrix(1.00, 0.00, -0.00, -1.00, 202.2, 339.4)"> </text><text xml:space="preserve" font-family="Helvetica,Helvetica" font-size="25.0" fill="#FEFFFE" transform="matrix(1.00, 0.00, -0.00, -1.00, 209.2, 339.4)">#</text><text xml:space="preserve" font-family="Helvetica,Helvetica" font-size="25.0" fill="#FEFFFE" transform="matrix(1.00, 0.00, -0.00, -1.00, 223.1, 339.4)">3</text></g></g><image xlink:href="../../87DE9CDD-2262-43AC-8851-051918EFFB71/assets/F84AED2CFBEA094F85B987F911CD6FC0.png" width="1115.00" height="95.00" transform="matrix(0.24, 0.00, -0.00, -0.24, 46.5, 321.3)"></image><image xlink:href="../../87DE9CDD-2262-43AC-8851-051918EFFB71/assets/42A98F8E44A89CD0F70C436CB529D2A9.png" width="277.00" height="64.00" transform="matrix(1.00, 0.00, -0.00, -1.01, 41.5, 309.7)" opacity="0.50"></image><path d="M 47.0 307.0 L 314.0 307.0 L 314.0 252.0 L 47.0 252.0 Z M 46.5 306.7 " fill="#79754B"></path><g><clipPath id="clip0x600002ab3e00"><path d="M 44.2 252.3 L 316.2 252.3 L 316.2 306.7 L 44.2 306.7 Z M 44.2 252.3 "></path></clipPath><g clip-path="url(#clip0x600002ab3e00)"><text xml:space="preserve" font-family="Helvetica,Helvetica" font-size="25.0" fill="#FEFFFE" transform="matrix(1.00, 0.00, -0.00, -1.00, 123.9, 270.4)">N</text><text xml:space="preserve" font-family="Helvetica,Helvetica" font-size="25.0" fill="#FEFFFE" transform="matrix(1.00, 0.00, -0.00, -1.00, 142.0, 270.4)">e</text><text xml:space="preserve" font-family="Helvetica,Helvetica" font-size="25.0" fill="#FEFFFE" transform="matrix(1.00, 0.00, -0.00, -1.00, 155.9, 270.4)">w</text><text xml:space="preserve" font-family="Helvetica,Helvetica" font-size="25.0" fill="#FEFFFE" transform="matrix(1.00, 0.00, -0.00, -1.00, 174.0, 270.4)">s</text><text xml:space="preserve" font-family="Helvetica,Helvetica" font-size="25.0" fill="#FEFFFE" transform="matrix(1.00, 0.00, -0.00, -1.00, 186.5, 270.4)"> </text><text xml:space="preserve" font-family="Helvetica,Helvetica" font-size="25.0" fill="#FEFFFE" transform="matrix(1.00, 0.00, -0.00, -1.00, 193.4, 270.4)">-</text><text xml:space="preserve" font-family="Helvetica,Helvetica" font-size="25.0" fill="#FEFFFE" transform="matrix(1.00, 0.00, -0.00, -1.00, 201.7, 270.4)"> </text><text xml:space="preserve" font-family="Helvetica,Helvetica" font-size="25.0" fill="#FEFFFE" transform="matrix(1.00, 0.00, -0.00, -1.00, 208.7, 270.4)">#</text><text xml:space="preserve" font-family="Helvetica,Helvetica" font-size="25.0" fill="#FEFFFE" transform="matrix(1.00, 0.00, -0.00, -1.00, 222.6, 270.4)">1</text></g></g><image xlink:href="../../87DE9CDD-2262-43AC-8851-051918EFFB71/assets/0F2D8C176ACA21802A1CE7B739ADF1C9.png" width="1115.00" height="95.00" transform="matrix(0.24, 0.00, -0.00, -0.24, 46.5, 252.3)"></image><image xlink:href="../../98E63C91-68AE-40F4-BEA4-E02E1727993C/assets/2E7B8DA69BFED1D3081836C309CA36F8.png" width="155.00" height="52.00" transform="matrix(1.00, 0.00, -0.00, -0.99, 717.7, 651.8)" opacity="0.50"></image><path d="M 723.0 649.0 L 868.0 649.0 L 868.0 607.0 L 723.0 607.0 Z M 722.7 648.8 " fill="#79754B"></path><g><clipPath id="clip0x608002ead860"><path d="M 720.5 606.6 L 870.3 606.6 L 870.3 649.1 L 720.5 649.1 Z M 720.5 606.6 "></path></clipPath><g clip-path="url(#clip0x608002ead860)"><text xml:space="preserve" font-family="Helvetica,Helvetica" font-size="25.0" fill="#FEFFFE" transform="matrix(1.00, 0.00, -0.00, -1.00, 738.6, 618.6)">V</text><text xml:space="preserve" font-family="Helvetica,Helvetica" font-size="25.0" fill="#FEFFFE" transform="matrix(1.00, 0.00, -0.00, -1.00, 754.8, 618.6)">i</text><text xml:space="preserve" font-family="Helvetica,Helvetica" font-size="25.0" fill="#FEFFFE" transform="matrix(1.00, 0.00, -0.00, -1.00, 760.4, 618.6)">d</text><text xml:space="preserve" font-family="Helvetica,Helvetica" font-size="25.0" fill="#FEFFFE" transform="matrix(1.00, 0.00, -0.00, -1.00, 774.3, 618.6)">e</text><text xml:space="preserve" font-family="Helvetica,Helvetica" font-size="25.0" fill="#FEFFFE" transform="matrix(1.00, 0.00, -0.00, -1.00, 788.2, 618.6)">o</text><text xml:space="preserve" font-family="Helvetica,Helvetica" font-size="25.0" fill="#FEFFFE" transform="matrix(1.00, 0.00, -0.00, -1.00, 802.1, 618.6)"> </text><text xml:space="preserve" font-family="Helvetica,Helvetica" font-size="25.0" fill="#FEFFFE" transform="matrix(1.00, 0.00, -0.00, -1.00, 809.1, 618.6)">-</text><text xml:space="preserve" font-family="Helvetica,Helvetica" font-size="25.0" fill="#FEFFFE" transform="matrix(1.00, 0.00, -0.00, -1.00, 817.4, 618.6)"> </text><text xml:space="preserve" font-family="Helvetica,Helvetica" font-size="25.0" fill="#FEFFFE" transform="matrix(1.00, 0.00, -0.00, -1.00, 824.3, 618.6)">#</text><text xml:space="preserve" font-family="Helvetica,Helvetica" font-size="25.0" fill="#FEFFFE" transform="matrix(1.00, 0.00, -0.00, -1.00, 838.2, 618.6)">3</text></g></g><image xlink:href="../../98E63C91-68AE-40F4-BEA4-E02E1727993C/assets/9E7B27DB8BF22D26CFC3D71269D08A1D.png" width="606.00" height="74.00" transform="matrix(0.24, 0.00, -0.00, -0.24, 722.7, 607.3)"></image><image xlink:href="../../98E63C91-68AE-40F4-BEA4-E02E1727993C/assets/2E7B8DA69BFED1D3081836C309CA36F8.png" width="155.00" height="52.00" transform="matrix(1.00, 0.00, -0.00, -0.99, 718.7, 600.8)" opacity="0.50"></image><path d="M 724.0 598.0 L 869.0 598.0 L 869.0 556.0 L 724.0 556.0 Z M 723.7 597.8 " fill="#79754B"></path><g><clipPath id="clip0x600002ab4580"><path d="M 721.5 555.6 L 871.3 555.6 L 871.3 598.1 L 721.5 598.1 Z M 721.5 555.6 "></path></clipPath><g clip-path="url(#clip0x600002ab4580)"><text xml:space="preserve" font-family="Helvetica,Helvetica" font-size="25.0" fill="#FEFFFE" transform="matrix(1.00, 0.00, -0.00, -1.00, 740.1, 567.6)">N</text><text xml:space="preserve" font-family="Helvetica,Helvetica" font-size="25.0" fill="#FEFFFE" transform="matrix(1.00, 0.00, -0.00, -1.00, 758.2, 567.6)">e</text><text xml:space="preserve" font-family="Helvetica,Helvetica" font-size="25.0" fill="#FEFFFE" transform="matrix(1.00, 0.00, -0.00, -1.00, 772.1, 567.6)">w</text><text xml:space="preserve" font-family="Helvetica,Helvetica" font-size="25.0" fill="#FEFFFE" transform="matrix(1.00, 0.00, -0.00, -1.00, 790.1, 567.6)">s</text><text xml:space="preserve" font-family="Helvetica,Helvetica" font-size="25.0" fill="#FEFFFE" transform="matrix(1.00, 0.00, -0.00, -1.00, 802.6, 567.6)"> </text><text xml:space="preserve" font-family="Helvetica,Helvetica" font-size="25.0" fill="#FEFFFE" transform="matrix(1.00, 0.00, -0.00, -1.00, 809.6, 567.6)">-</text><text xml:space="preserve" font-family="Helvetica,Helvetica" font-size="25.0" fill="#FEFFFE" transform="matrix(1.00, 0.00, -0.00, -1.00, 817.9, 567.6)"> </text><text xml:space="preserve" font-family="Helvetica,Helvetica" font-size="25.0" fill="#FEFFFE" transform="matrix(1.00, 0.00, -0.00, -1.00, 824.8, 567.6)">#</text><text xml:space="preserve" font-family="Helvetica,Helvetica" font-size="25.0" fill="#FEFFFE" transform="matrix(1.00, 0.00, -0.00, -1.00, 838.8, 567.6)">1</text></g></g><image xlink:href="../../98E63C91-68AE-40F4-BEA4-E02E1727993C/assets/C846BD3D467552002174D14E10D505D2.png" width="606.00" height="74.00" transform="matrix(0.24, 0.00, -0.00, -0.24, 723.7, 556.3)"></image><image xlink:href="../../BE03AB4A-F5E0-4685-80C7-20DCBC62631F/assets/E5BC6485FDBC90128B240599589CBB31.png" width="2326.00" height="4096.00" transform="matrix(0.08, 0.00, -0.00, -0.08, 704.0, 357.0)"></image><image xlink:href="../../BE03AB4A-F5E0-4685-80C7-20DCBC62631F/assets/860D9470BEBE730C4B6C8AC19D18E4A1.png" width="128.00" height="128.00" transform="matrix(0.23, 0.00, -0.00, -0.24, 722.0, 310.0)"></image><path d="M 0.0 0.0 L 375.1 0.0 L 376.1 0.0 " fill="none" stroke="#595E5D" stroke-width="2.00" transform="matrix(0.83, -0.56, -0.56, -0.83, 368.4, 387.3)"></path><path d="M 675.9 172.4 L 686.5 171.0 L 681.3 180.3 Z M 675.9 172.4 " fill="#595E5D"></path><text xml:space="preserve" font-family="GillSans-Light,Gill Sans" font-size="20.0" fill="#525252" transform="matrix(1.00, 0.00, -0.00, -1.00, 756.4, 286.6)">R</text><text xml:space="preserve" font-family="GillSans-Light,Gill Sans" font-size="20.0" fill="#525252" transform="matrix(1.00, 0.00, -0.00, -1.00, 767.9, 286.6)">i</text><text xml:space="preserve" font-family="GillSans-Light,Gill Sans" font-size="20.0" fill="#525252" transform="matrix(1.00, 0.00, -0.00, -1.00, 771.6, 286.6)">c</text><text xml:space="preserve" font-family="GillSans-Light,Gill Sans" font-size="20.0" fill="#525252" transform="matrix(1.00, 0.00, -0.00, -1.00, 780.0, 286.6)">e</text><text xml:space="preserve" font-family="GillSans-Light,Gill Sans" font-size="20.0" fill="#525252" transform="matrix(1.00, 0.00, -0.00, -1.00, 789.6, 286.6)"> </text><text xml:space="preserve" font-family="GillSans-Light,Gill Sans" font-size="20.0" fill="#525252" transform="matrix(1.00, 0.00, -0.00, -1.00, 795.1, 286.6)">F</text><text xml:space="preserve" font-family="GillSans-Light,Gill Sans" font-size="20.0" fill="#525252" transform="matrix(1.00, 0.00, -0.00, -1.00, 803.9, 286.6)">e</text><text xml:space="preserve" font-family="GillSans-Light,Gill Sans" font-size="20.0" fill="#525252" transform="matrix(1.00, 0.00, -0.00, -1.00, 813.4, 286.6)">r</text><text xml:space="preserve" font-family="GillSans-Light,Gill Sans" font-size="20.0" fill="#525252" transform="matrix(1.00, 0.00, -0.00, -1.00, 821.7, 286.6)">t</text><text xml:space="preserve" font-family="GillSans-Light,Gill Sans" font-size="20.0" fill="#525252" transform="matrix(1.00, 0.00, -0.00, -1.00, 827.7, 286.6)">i</text><text xml:space="preserve" font-family="GillSans-Light,Gill Sans" font-size="20.0" fill="#525252" transform="matrix(1.00, 0.00, -0.00, -1.00, 831.5, 286.6)">l</text><text xml:space="preserve" font-family="GillSans-Light,Gill Sans" font-size="20.0" fill="#525252" transform="matrix(1.00, 0.00, -0.00, -1.00, 835.3, 286.6)">i</text><text xml:space="preserve" font-family="GillSans-Light,Gill Sans" font-size="20.0" fill="#525252" transform="matrix(1.00, 0.00, -0.00, -1.00, 839.0, 286.6)">s</text><text xml:space="preserve" font-family="GillSans-Light,Gill Sans" font-size="20.0" fill="#525252" transform="matrix(1.00, 0.00, -0.00, -1.00, 846.1, 286.6)">e</text><text xml:space="preserve" font-family="GillSans-Light,Gill Sans" font-size="20.0" fill="#525252" transform="matrix(1.00, 0.00, -0.00, -1.00, 855.7, 286.6)">r</text><image xlink:href="../../40390A68-0357-43F3-AF26-439AC5E0289A/assets/55BC84839CA61D5632C2539B77AE8FA6.png" width="155.00" height="52.00" transform="matrix(1.00, 0.00, -0.00, -0.99, 717.7, 276.0)" opacity="0.50"></image><path d="M 723.0 273.0 L 868.0 273.0 L 868.0 232.0 L 723.0 232.0 Z M 722.7 273.0 " fill="#740C00"></path><g><clipPath id="clip0x600002ab5540"><path d="M 720.5 230.8 L 870.3 230.8 L 870.3 273.3 L 720.5 273.3 Z M 720.5 230.8 "></path></clipPath><g clip-path="url(#clip0x600002ab5540)"><text xml:space="preserve" font-family="Helvetica,Helvetica" font-size="25.0" fill="#FEFFFE" transform="matrix(1.00, 0.00, -0.00, -1.00, 738.6, 242.8)">V</text><text xml:space="preserve" font-family="Helvetica,Helvetica" font-size="25.0" fill="#FEFFFE" transform="matrix(1.00, 0.00, -0.00, -1.00, 754.8, 242.8)">i</text><text xml:space="preserve" font-family="Helvetica,Helvetica" font-size="25.0" fill="#FEFFFE" transform="matrix(1.00, 0.00, -0.00, -1.00, 760.4, 242.8)">d</text><text xml:space="preserve" font-family="Helvetica,Helvetica" font-size="25.0" fill="#FEFFFE" transform="matrix(1.00, 0.00, -0.00, -1.00, 774.3, 242.8)">e</text><text xml:space="preserve" font-family="Helvetica,Helvetica" font-size="25.0" fill="#FEFFFE" transform="matrix(1.00, 0.00, -0.00, -1.00, 788.2, 242.8)">o</text><text xml:space="preserve" font-family="Helvetica,Helvetica" font-size="25.0" fill="#FEFFFE" transform="matrix(1.00, 0.00, -0.00, -1.00, 802.1, 242.8)"> </text><text xml:space="preserve" font-family="Helvetica,Helvetica" font-size="25.0" fill="#FEFFFE" transform="matrix(1.00, 0.00, -0.00, -1.00, 809.1, 242.8)">-</text><text xml:space="preserve" font-family="Helvetica,Helvetica" font-size="25.0" fill="#FEFFFE" transform="matrix(1.00, 0.00, -0.00, -1.00, 817.4, 242.8)"> </text><text xml:space="preserve" font-family="Helvetica,Helvetica" font-size="25.0" fill="#FEFFFE" transform="matrix(1.00, 0.00, -0.00, -1.00, 824.3, 242.8)">#</text><text xml:space="preserve" font-family="Helvetica,Helvetica" font-size="25.0" fill="#FEFFFE" transform="matrix(1.00, 0.00, -0.00, -1.00, 838.2, 242.8)">5</text></g></g><image xlink:href="../../40390A68-0357-43F3-AF26-439AC5E0289A/assets/D5A22C95878DCF831D9C39D943B8F345.png" width="606.00" height="74.00" transform="matrix(0.24, 0.00, -0.00, -0.24, 722.7, 231.5)"></image><image xlink:href="../../40390A68-0357-43F3-AF26-439AC5E0289A/assets/55BC84839CA61D5632C2539B77AE8FA6.png" width="155.00" height="52.00" transform="matrix(1.00, 0.00, -0.00, -0.99, 718.7, 225.0)" opacity="0.50"></image><path d="M 724.0 222.0 L 869.0 222.0 L 869.0 181.0 L 724.0 181.0 Z M 723.7 222.0 " fill="#740C00"></path><g><clipPath id="clip0x608002eae340"><path d="M 721.5 179.8 L 871.3 179.8 L 871.3 222.3 L 721.5 222.3 Z M 721.5 179.8 "></path></clipPath><g clip-path="url(#clip0x608002eae340)"><text xml:space="preserve" font-family="Helvetica,Helvetica" font-size="25.0" fill="#FEFFFE" transform="matrix(1.00, 0.00, -0.00, -1.00, 736.6, 191.8)">A</text><text xml:space="preserve" font-family="Helvetica,Helvetica" font-size="25.0" fill="#FEFFFE" transform="matrix(1.00, 0.00, -0.00, -1.00, 753.3, 191.8)">r</text><text xml:space="preserve" font-family="Helvetica,Helvetica" font-size="25.0" fill="#FEFFFE" transform="matrix(1.00, 0.00, -0.00, -1.00, 761.6, 191.8)">t</text><text xml:space="preserve" font-family="Helvetica,Helvetica" font-size="25.0" fill="#FEFFFE" transform="matrix(1.00, 0.00, -0.00, -1.00, 768.6, 191.8)">i</text><text xml:space="preserve" font-family="Helvetica,Helvetica" font-size="25.0" fill="#FEFFFE" transform="matrix(1.00, 0.00, -0.00, -1.00, 774.1, 191.8)">c</text><text xml:space="preserve" font-family="Helvetica,Helvetica" font-size="25.0" fill="#FEFFFE" transform="matrix(1.00, 0.00, -0.00, -1.00, 786.6, 191.8)">l</text><text xml:space="preserve" font-family="Helvetica,Helvetica" font-size="25.0" fill="#FEFFFE" transform="matrix(1.00, 0.00, -0.00, -1.00, 792.2, 191.8)">e</text><text xml:space="preserve" font-family="Helvetica,Helvetica" font-size="25.0" fill="#FEFFFE" transform="matrix(1.00, 0.00, -0.00, -1.00, 806.1, 191.8)"> </text><text xml:space="preserve" font-family="Helvetica,Helvetica" font-size="25.0" fill="#FEFFFE" transform="matrix(1.00, 0.00, -0.00, -1.00, 813.0, 191.8)">-</text><text xml:space="preserve" font-family="Helvetica,Helvetica" font-size="25.0" fill="#FEFFFE" transform="matrix(1.00, 0.00, -0.00, -1.00, 821.4, 191.8)"> </text><text xml:space="preserve" font-family="Helvetica,Helvetica" font-size="25.0" fill="#FEFFFE" transform="matrix(1.00, 0.00, -0.00, -1.00, 828.3, 191.8)">#</text><text xml:space="preserve" font-family="Helvetica,Helvetica" font-size="25.0" fill="#FEFFFE" transform="matrix(1.00, 0.00, -0.00, -1.00, 842.2, 191.8)">2</text></g></g><image xlink:href="../../40390A68-0357-43F3-AF26-439AC5E0289A/assets/18A35B746D8FFDFB1AF19D6E4F7B33D2.png" width="606.00" height="74.00" transform="matrix(0.24, 0.00, -0.00, -0.24, 723.7, 180.5)"></image><path d="M 0.0 0.0 L 357.1 0.0 L 358.1 0.0 " fill="none" stroke="#595E5D" stroke-width="2.00" transform="matrix(-0.87, -0.50, -0.50, 0.87, 686.0, 627.1)"></path><path d="M 373.7 453.8 L 367.8 444.8 L 378.5 445.4 Z M 373.7 453.8 " fill="#595E5D"></path></g></svg>