<?xml version="1.0" encoding="UTF-8" standalone="no"?><svg xmlns="http://www.w3.org/2000/svg" xmlns:xlink="http://www.w3.org/1999/xlink" clip-rule="evenodd" stroke-miterlimit="10" viewBox="0 0 280 103"><desc>SVG generated by Keynote</desc><defs></defs><g transform="matrix(1.00, 0.00, -0.00, -1.00, 0.0, 103.0)"><image xlink:href="../../87DE9CDD-2262-43AC-8851-051918EFFB71/assets/42A98F8E44A89CD0F70C436CB529D2A9.png" width="277.00" height="64.00" transform="matrix(1.00, 0.00, -0.00, -1.01, 1.5, 81.7)" opacity="0.50"></image><path d="M 7.0 79.0 L 274.0 79.0 L 274.0 24.0 L 7.0 24.0 Z M 6.5 78.7 " fill="#79754B"></path><g><clipPath id="clip0x608002ea9600"><path d="M 4.2 24.3 L 276.2 24.3 L 276.2 78.7 L 4.2 78.7 Z M 4.2 24.3 "></path></clipPath><g clip-path="url(#clip0x608002ea9600)"><text xml:space="preserve" font-family="Helvetica,Helvetica" font-size="25.0" fill="#FEFFFE" transform="matrix(1.00, 0.00, -0.00, -1.00, 83.9, 42.4)">N</text><text xml:space="preserve" font-family="Helvetica,Helvetica" font-size="25.0" fill="#FEFFFE" transform="matrix(1.00, 0.00, -0.00, -1.00, 102.0, 42.4)">e</text><text xml:space="preserve" font-family="Helvetica,Helvetica" font-size="25.0" fill="#FEFFFE" transform="matrix(1.00, 0.00, -0.00, -1.00, 115.9, 42.4)">w</text><text xml:space="preserve" font-family="Helvetica,Helvetica" font-size="25.0" fill="#FEFFFE" transform="matrix(1.00, 0.00, -0.00, -1.00, 134.0, 42.4)">s</text><text xml:space="preserve" font-family="Helvetica,Helvetica" font-size="25.0" fill="#FEFFFE" transform="matrix(1.00, 0.00, -0.00, -1.00, 146.5, 42.4)"> </text><text xml:space="preserve" font-family="Helvetica,Helvetica" font-size="25.0" fill="#FEFFFE" transform="matrix(1.00, 0.00, -0.00, -1.00, 153.4, 42.4)">-</text><text xml:space="preserve" font-family="Helvetica,Helvetica" font-size="25.0" fill="#FEFFFE" transform="matrix(1.00, 0.00, -0.00, -1.00, 161.7, 42.4)"> </text><text xml:space="preserve" font-family="Helvetica,Helvetica" font-size="25.0" fill="#FEFFFE" transform="matrix(1.00, 0.00, -0.00, -1.00, 168.7, 42.4)">#</text><text xml:space="preserve" font-family="Helvetica,Helvetica" font-size="25.0" fill="#FEFFFE" transform="matrix(1.00, 0.00, -0.00, -1.00, 182.6, 42.4)">1</text></g></g><image xlink:href="../../87DE9CDD-2262-43AC-8851-051918EFFB71/assets/0F2D8C176ACA21802A1CE7B739ADF1C9.png" width="1115.00" height="95.00" transform="matrix(0.24, 0.00, -0.00, -0.24, 6.5, 24.3)"></image></g></svg>