<?xml version="1.0" encoding="UTF-8" standalone="no"?><svg xmlns="http://www.w3.org/2000/svg" xmlns:xlink="http://www.w3.org/1999/xlink" clip-rule="evenodd" stroke-miterlimit="10" viewBox="0 0 277 105"><desc>SVG generated by Keynote</desc><defs></defs><g transform="matrix(1.00, 0.00, -0.00, -1.00, 0.0, 105.0)"><image xlink:href="../../0190F97F-859F-422B-B628-629B837B8515/assets/3D6B2F1B5500233119DE62EF7B49B8BF.png" width="274.00" height="66.00" transform="matrix(1.00, 0.00, -0.00, -1.00, 1.0, 83.4)" opacity="0.50"></image><path d="M 6.0 80.0 L 270.0 80.0 L 270.0 25.0 L 6.0 25.0 Z M 6.0 80.4 " fill="#78889F"></path><g><clipPath id="clip0x608002eb5f00"><path d="M 3.8 24.6 L 272.7 24.6 L 272.7 80.4 L 3.8 80.4 Z M 3.8 24.6 "></path></clipPath><g clip-path="url(#clip0x608002eb5f00)"><text xml:space="preserve" font-family="Helvetica,Helvetica" font-size="25.0" fill="#FEFFFE" transform="matrix(1.00, 0.00, -0.00, -1.00, 78.5, 43.1)">A</text><text xml:space="preserve" font-family="Helvetica,Helvetica" font-size="25.0" fill="#FEFFFE" transform="matrix(1.00, 0.00, -0.00, -1.00, 95.1, 43.1)">r</text><text xml:space="preserve" font-family="Helvetica,Helvetica" font-size="25.0" fill="#FEFFFE" transform="matrix(1.00, 0.00, -0.00, -1.00, 103.5, 43.1)">t</text><text xml:space="preserve" font-family="Helvetica,Helvetica" font-size="25.0" fill="#FEFFFE" transform="matrix(1.00, 0.00, -0.00, -1.00, 110.4, 43.1)">i</text><text xml:space="preserve" font-family="Helvetica,Helvetica" font-size="25.0" fill="#FEFFFE" transform="matrix(1.00, 0.00, -0.00, -1.00, 116.0, 43.1)">c</text><text xml:space="preserve" font-family="Helvetica,Helvetica" font-size="25.0" fill="#FEFFFE" transform="matrix(1.00, 0.00, -0.00, -1.00, 128.5, 43.1)">l</text><text xml:space="preserve" font-family="Helvetica,Helvetica" font-size="25.0" fill="#FEFFFE" transform="matrix(1.00, 0.00, -0.00, -1.00, 134.0, 43.1)">e</text><text xml:space="preserve" font-family="Helvetica,Helvetica" font-size="25.0" fill="#FEFFFE" transform="matrix(1.00, 0.00, -0.00, -1.00, 147.9, 43.1)"> </text><text xml:space="preserve" font-family="Helvetica,Helvetica" font-size="25.0" fill="#FEFFFE" transform="matrix(1.00, 0.00, -0.00, -1.00, 154.9, 43.1)">-</text><text xml:space="preserve" font-family="Helvetica,Helvetica" font-size="25.0" fill="#FEFFFE" transform="matrix(1.00, 0.00, -0.00, -1.00, 163.2, 43.1)"> </text><text xml:space="preserve" font-family="Helvetica,Helvetica" font-size="25.0" fill="#FEFFFE" transform="matrix(1.00, 0.00, -0.00, -1.00, 170.1, 43.1)">#</text><text xml:space="preserve" font-family="Helvetica,Helvetica" font-size="25.0" fill="#FEFFFE" transform="matrix(1.00, 0.00, -0.00, -1.00, 184.1, 43.1)">1</text></g></g><image xlink:href="../../0190F97F-859F-422B-B628-629B837B8515/assets/648D6480FAF43C7971D448FF85554D7C.png" width="1102.00" height="98.00" transform="matrix(0.24, 0.00, -0.00, -0.24, 6.0, 24.6)"></image></g></svg>