<?xml version="1.0" encoding="UTF-8" standalone="no"?><svg xmlns="http://www.w3.org/2000/svg" xmlns:xlink="http://www.w3.org/1999/xlink" clip-rule="evenodd" stroke-miterlimit="10" viewBox="0 0 1024 768"><desc>SVG generated by Keynote</desc><defs></defs><g transform="matrix(1.00, 0.00, -0.00, -1.00, 0.0, 768.0)"><path d="M 0.0 768.0 L 1024.0 768.0 L 1024.0 0.0 L 0.0 0.0 Z M 0.0 768.0 " fill="#000000"></path><image xlink:href="../../4D24B07D-6821-4D42-A144-5F39E25B4D6A/assets/07FB7835A865CF6F5C56934D8493B512.png" width="256.00" height="256.00" transform="matrix(1.19, 0.00, -0.00, -1.19, 105.0, 536.0)"></image><image xlink:href="../../4D24B07D-6821-4D42-A144-5F39E25B4D6A/assets/07FB7835A865CF6F5C56934D8493B512.png" width="256.00" height="256.00" transform="matrix(1.19, 0.00, -0.00, -1.19, 559.0, 643.0)"></image><image xlink:href="../../4D24B07D-6821-4D42-A144-5F39E25B4D6A/assets/07FB7835A865CF6F5C56934D8493B512.png" width="256.00" height="256.00" transform="matrix(1.19, 0.00, -0.00, -1.19, 559.0, 306.0)"></image><path d="M 0.0 0.0 L 270.8 0.0 L 271.8 0.0 " fill="none" stroke="#FEFFFE" stroke-width="2.00" transform="matrix(0.87, 0.49, 0.49, -0.87, 362.8, 378.9)"></path><path d="M 600.9 507.9 L 606.9 516.8 L 596.2 516.2 Z M 600.9 507.9 " fill="#FEFFFE"></path><path d="M 0.0 0.0 L 287.8 0.0 L 288.8 0.0 " fill="none" stroke="#FEFFFE" stroke-width="2.00" transform="matrix(0.79, -0.62, -0.62, -0.79, 367.7, 351.3)"></path><path d="M 591.6 170.5 L 602.2 168.4 L 597.5 178.1 Z M 591.6 170.5 " fill="#FEFFFE"></path><path d="M 0.0 0.0 L 275.6 0.0 L 276.6 0.0 " fill="none" stroke="#FEFFFE" stroke-width="2.00" transform="matrix(-0.87, -0.49, -0.49, 0.87, 609.1, 538.6)"></path><path d="M 365.7 409.0 L 359.7 400.2 L 370.4 400.6 Z M 365.7 409.0 " fill="#FEFFFE"></path><path d="M 0.0 0.0 L 288.0 0.0 L 289.0 0.0 " fill="none" stroke="#FEFFFE" stroke-width="2.00" transform="matrix(-0.78, 0.63, 0.63, 0.78, 591.9, 142.8)"></path><path d="M 370.2 326.6 L 359.7 328.9 L 364.2 319.1 Z M 370.2 326.6 " fill="#FEFFFE"></path><path d="M -0.2 -0.5 L 28.0 -0.5 L 28.8 -0.5 " fill="none" stroke="#FEFFFE" stroke-width="2.00" transform="matrix(0.00, 1.00, 1.00, 0.00, 695.5, 301.2)"></path><path d="M 699.8 329.0 L 695.0 338.6 L 690.2 329.0 Z M 699.8 329.0 " fill="#FEFFFE"></path><path d="M 0.3 0.2 L 28.0 0.2 L 29.3 0.2 " fill="none" stroke="#FEFFFE" stroke-width="2.00" transform="matrix(0.00, -1.00, -1.00, 0.00, 711.2, 336.3)"></path><path d="M 706.2 308.0 L 711.0 298.4 L 715.8 308.0 Z M 706.2 308.0 " fill="#FEFFFE"></path><path d="M 886.7 704.8 C 824.8 704.8 774.6 687.3 774.6 665.7 C 774.6 654.2 788.9 644.0 811.4 636.8 L 775.9 605.8 L 856.4 628.2 C 866.1 627.2 876.1 626.5 886.7 626.5 C 948.6 626.5 998.8 644.0 998.8 665.7 C 998.8 687.3 948.6 704.8 886.7 704.8 Z M 886.7 704.8 " fill="#0B5C11"></path><g><clipPath id="clip0x608002ca0540"><path d="M 774.6 626.5 L 998.8 626.5 L 998.8 705.8 L 774.6 705.8 Z M 774.6 626.5 "></path></clipPath><g clip-path="url(#clip0x608002ca0540)"><text xml:space="preserve" font-family="Helvetica-Light,Helvetica" font-size="24.0" fill="#FEFFFF" transform="matrix(1.00, 0.00, -0.00, -1.00, 869.4, 676.3)">I</text><text xml:space="preserve" font-family="Helvetica-Light,Helvetica" font-size="24.0" fill="#FEFFFF" transform="matrix(1.00, 0.00, -0.00, -1.00, 876.0, 676.3)">P</text><text xml:space="preserve" font-family="Helvetica-Light,Helvetica" font-size="24.0" fill="#FEFFFF" transform="matrix(1.00, 0.00, -0.00, -1.00, 890.7, 676.3)"> </text><text xml:space="preserve" font-family="Helvetica-Light,Helvetica" font-size="24.0" fill="#FEFFFF" transform="matrix(1.00, 0.00, -0.00, -1.00, 897.4, 676.3)">:</text><text xml:space="preserve" font-family="Helvetica-Light,Helvetica" font-size="24.0" fill="#FEFFFF" transform="matrix(1.00, 0.00, -0.00, -1.00, 904.0, 676.3)"> </text><text xml:space="preserve" font-family="Helvetica-Light,Helvetica" font-size="24.0" fill="#FEFFFF" transform="matrix(1.00, 0.00, -0.00, -1.00, 816.7, 647.3)">1</text><text xml:space="preserve" font-family="Helvetica-Light,Helvetica" font-size="24.0" fill="#FEFFFF" transform="matrix(1.00, 0.00, -0.00, -1.00, 830.0, 647.3)">9</text><text xml:space="preserve" font-family="Helvetica-Light,Helvetica" font-size="24.0" fill="#FEFFFF" transform="matrix(1.00, 0.00, -0.00, -1.00, 843.3, 647.3)">2</text><text xml:space="preserve" font-family="Helvetica-Light,Helvetica" font-size="24.0" fill="#FEFFFF" transform="matrix(1.00, 0.00, -0.00, -1.00, 856.7, 647.3)">.</text><text xml:space="preserve" font-family="Helvetica-Light,Helvetica" font-size="24.0" fill="#FEFFFF" transform="matrix(1.00, 0.00, -0.00, -1.00, 863.4, 647.3)">1</text><text xml:space="preserve" font-family="Helvetica-Light,Helvetica" font-size="24.0" fill="#FEFFFF" transform="matrix(1.00, 0.00, -0.00, -1.00, 876.7, 647.3)">6</text><text xml:space="preserve" font-family="Helvetica-Light,Helvetica" font-size="24.0" fill="#FEFFFF" transform="matrix(1.00, 0.00, -0.00, -1.00, 890.0, 647.3)">8</text><text xml:space="preserve" font-family="Helvetica-Light,Helvetica" font-size="24.0" fill="#FEFFFF" transform="matrix(1.00, 0.00, -0.00, -1.00, 903.4, 647.3)">.</text><text xml:space="preserve" font-family="Helvetica-Light,Helvetica" font-size="24.0" fill="#FEFFFF" transform="matrix(1.00, 0.00, -0.00, -1.00, 910.1, 647.3)">4</text><text xml:space="preserve" font-family="Helvetica-Light,Helvetica" font-size="24.0" fill="#FEFFFF" transform="matrix(1.00, 0.00, -0.00, -1.00, 923.4, 647.3)">3</text><text xml:space="preserve" font-family="Helvetica-Light,Helvetica" font-size="24.0" fill="#FEFFFF" transform="matrix(1.00, 0.00, -0.00, -1.00, 936.8, 647.3)">.</text><text xml:space="preserve" font-family="Helvetica-Light,Helvetica" font-size="24.0" fill="#FEFFFF" transform="matrix(1.00, 0.00, -0.00, -1.00, 943.4, 647.3)">2</text><text xml:space="preserve" font-family="Helvetica-Light,Helvetica" font-size="24.0" fill="#FEFFFF" transform="matrix(1.00, 0.00, -0.00, -1.00, 956.8, 647.3)"> </text></g></g><path d="M 886.7 348.7 C 824.8 348.7 774.6 331.2 774.6 309.6 C 774.6 298.2 788.9 287.9 811.4 280.8 L 775.9 249.7 L 856.4 272.1 C 866.1 271.1 876.1 270.4 886.7 270.4 C 948.6 270.4 998.8 288.0 998.8 309.6 C 998.8 331.2 948.6 348.7 886.7 348.7 Z M 886.7 348.7 " fill="#0B5C11"></path><g><clipPath id="clip0x6080024b7d60"><path d="M 774.6 270.4 L 998.8 270.4 L 998.8 349.7 L 774.6 349.7 Z M 774.6 270.4 "></path></clipPath><g clip-path="url(#clip0x6080024b7d60)"><text xml:space="preserve" font-family="Helvetica-Light,Helvetica" font-size="24.0" fill="#FEFFFF" transform="matrix(1.00, 0.00, -0.00, -1.00, 869.4, 320.2)">I</text><text xml:space="preserve" font-family="Helvetica-Light,Helvetica" font-size="24.0" fill="#FEFFFF" transform="matrix(1.00, 0.00, -0.00, -1.00, 876.0, 320.2)">P</text><text xml:space="preserve" font-family="Helvetica-Light,Helvetica" font-size="24.0" fill="#FEFFFF" transform="matrix(1.00, 0.00, -0.00, -1.00, 890.7, 320.2)"> </text><text xml:space="preserve" font-family="Helvetica-Light,Helvetica" font-size="24.0" fill="#FEFFFF" transform="matrix(1.00, 0.00, -0.00, -1.00, 897.4, 320.2)">:</text><text xml:space="preserve" font-family="Helvetica-Light,Helvetica" font-size="24.0" fill="#FEFFFF" transform="matrix(1.00, 0.00, -0.00, -1.00, 904.0, 320.2)"> </text><text xml:space="preserve" font-family="Helvetica-Light,Helvetica" font-size="24.0" fill="#FEFFFF" transform="matrix(1.00, 0.00, -0.00, -1.00, 816.7, 291.2)">1</text><text xml:space="preserve" font-family="Helvetica-Light,Helvetica" font-size="24.0" fill="#FEFFFF" transform="matrix(1.00, 0.00, -0.00, -1.00, 830.0, 291.2)">9</text><text xml:space="preserve" font-family="Helvetica-Light,Helvetica" font-size="24.0" fill="#FEFFFF" transform="matrix(1.00, 0.00, -0.00, -1.00, 843.3, 291.2)">2</text><text xml:space="preserve" font-family="Helvetica-Light,Helvetica" font-size="24.0" fill="#FEFFFF" transform="matrix(1.00, 0.00, -0.00, -1.00, 856.7, 291.2)">.</text><text xml:space="preserve" font-family="Helvetica-Light,Helvetica" font-size="24.0" fill="#FEFFFF" transform="matrix(1.00, 0.00, -0.00, -1.00, 863.4, 291.2)">1</text><text xml:space="preserve" font-family="Helvetica-Light,Helvetica" font-size="24.0" fill="#FEFFFF" transform="matrix(1.00, 0.00, -0.00, -1.00, 876.7, 291.2)">6</text><text xml:space="preserve" font-family="Helvetica-Light,Helvetica" font-size="24.0" fill="#FEFFFF" transform="matrix(1.00, 0.00, -0.00, -1.00, 890.0, 291.2)">8</text><text xml:space="preserve" font-family="Helvetica-Light,Helvetica" font-size="24.0" fill="#FEFFFF" transform="matrix(1.00, 0.00, -0.00, -1.00, 903.4, 291.2)">.</text><text xml:space="preserve" font-family="Helvetica-Light,Helvetica" font-size="24.0" fill="#FEFFFF" transform="matrix(1.00, 0.00, -0.00, -1.00, 910.1, 291.2)">4</text><text xml:space="preserve" font-family="Helvetica-Light,Helvetica" font-size="24.0" fill="#FEFFFF" transform="matrix(1.00, 0.00, -0.00, -1.00, 923.4, 291.2)">3</text><text xml:space="preserve" font-family="Helvetica-Light,Helvetica" font-size="24.0" fill="#FEFFFF" transform="matrix(1.00, 0.00, -0.00, -1.00, 936.8, 291.2)">.</text><text xml:space="preserve" font-family="Helvetica-Light,Helvetica" font-size="24.0" fill="#FEFFFF" transform="matrix(1.00, 0.00, -0.00, -1.00, 943.4, 291.2)">3</text><text xml:space="preserve" font-family="Helvetica-Light,Helvetica" font-size="24.0" fill="#FEFFFF" transform="matrix(1.00, 0.00, -0.00, -1.00, 956.8, 291.2)"> </text></g></g><path d="M 424.3 599.7 C 362.4 599.7 312.2 582.2 312.2 560.6 C 312.2 549.2 326.5 539.0 348.9 531.8 L 313.5 500.7 L 393.9 523.1 C 403.6 522.2 413.7 521.5 424.3 521.5 C 486.2 521.5 536.3 539.0 536.3 560.6 C 536.3 582.2 486.2 599.7 424.3 599.7 Z M 424.3 599.7 " fill="#0B5C11"></path><g><clipPath id="clip0x608002ca6840"><path d="M 312.2 521.5 L 536.3 521.5 L 536.3 600.7 L 312.2 600.7 Z M 312.2 521.5 "></path></clipPath><g clip-path="url(#clip0x608002ca6840)"><text xml:space="preserve" font-family="Helvetica-Light,Helvetica" font-size="24.0" fill="#FEFFFF" transform="matrix(1.00, 0.00, -0.00, -1.00, 406.9, 571.3)">I</text><text xml:space="preserve" font-family="Helvetica-Light,Helvetica" font-size="24.0" fill="#FEFFFF" transform="matrix(1.00, 0.00, -0.00, -1.00, 413.6, 571.3)">P</text><text xml:space="preserve" font-family="Helvetica-Light,Helvetica" font-size="24.0" fill="#FEFFFF" transform="matrix(1.00, 0.00, -0.00, -1.00, 428.3, 571.3)"> </text><text xml:space="preserve" font-family="Helvetica-Light,Helvetica" font-size="24.0" fill="#FEFFFF" transform="matrix(1.00, 0.00, -0.00, -1.00, 434.9, 571.3)">:</text><text xml:space="preserve" font-family="Helvetica-Light,Helvetica" font-size="24.0" fill="#FEFFFF" transform="matrix(1.00, 0.00, -0.00, -1.00, 441.6, 571.3)"> </text><text xml:space="preserve" font-family="Helvetica-Light,Helvetica" font-size="24.0" fill="#FEFFFF" transform="matrix(1.00, 0.00, -0.00, -1.00, 354.2, 542.3)">1</text><text xml:space="preserve" font-family="Helvetica-Light,Helvetica" font-size="24.0" fill="#FEFFFF" transform="matrix(1.00, 0.00, -0.00, -1.00, 367.6, 542.3)">9</text><text xml:space="preserve" font-family="Helvetica-Light,Helvetica" font-size="24.0" fill="#FEFFFF" transform="matrix(1.00, 0.00, -0.00, -1.00, 380.9, 542.3)">2</text><text xml:space="preserve" font-family="Helvetica-Light,Helvetica" font-size="24.0" fill="#FEFFFF" transform="matrix(1.00, 0.00, -0.00, -1.00, 394.3, 542.3)">.</text><text xml:space="preserve" font-family="Helvetica-Light,Helvetica" font-size="24.0" fill="#FEFFFF" transform="matrix(1.00, 0.00, -0.00, -1.00, 400.9, 542.3)">1</text><text xml:space="preserve" font-family="Helvetica-Light,Helvetica" font-size="24.0" fill="#FEFFFF" transform="matrix(1.00, 0.00, -0.00, -1.00, 414.3, 542.3)">6</text><text xml:space="preserve" font-family="Helvetica-Light,Helvetica" font-size="24.0" fill="#FEFFFF" transform="matrix(1.00, 0.00, -0.00, -1.00, 427.6, 542.3)">8</text><text xml:space="preserve" font-family="Helvetica-Light,Helvetica" font-size="24.0" fill="#FEFFFF" transform="matrix(1.00, 0.00, -0.00, -1.00, 441.0, 542.3)">.</text><text xml:space="preserve" font-family="Helvetica-Light,Helvetica" font-size="24.0" fill="#FEFFFF" transform="matrix(1.00, 0.00, -0.00, -1.00, 447.6, 542.3)">4</text><text xml:space="preserve" font-family="Helvetica-Light,Helvetica" font-size="24.0" fill="#FEFFFF" transform="matrix(1.00, 0.00, -0.00, -1.00, 461.0, 542.3)">3</text><text xml:space="preserve" font-family="Helvetica-Light,Helvetica" font-size="24.0" fill="#FEFFFF" transform="matrix(1.00, 0.00, -0.00, -1.00, 474.3, 542.3)">.</text><text xml:space="preserve" font-family="Helvetica-Light,Helvetica" font-size="24.0" fill="#FEFFFF" transform="matrix(1.00, 0.00, -0.00, -1.00, 481.0, 542.3)">1</text><text xml:space="preserve" font-family="Helvetica-Light,Helvetica" font-size="24.0" fill="#FEFFFF" transform="matrix(1.00, 0.00, -0.00, -1.00, 494.3, 542.3)"> </text></g></g></g></svg>