<?xml version="1.0" encoding="UTF-8" standalone="no"?><svg xmlns="http://www.w3.org/2000/svg" xmlns:xlink="http://www.w3.org/1999/xlink" clip-rule="evenodd" stroke-miterlimit="10" viewBox="0 0 1024 768"><desc>SVG generated by Keynote</desc><defs></defs><g transform="matrix(1.00, 0.00, -0.00, -1.00, 0.0, 768.0)"><g><clipPath id="clip0x6080030bb300"><path d="M 0.0 768.0 L 1024.0 768.0 L 1024.0 0.0 L 0.0 0.0 Z M 0.0 768.0 "></path></clipPath><g clip-path="url(#clip0x6080030bb300)"><image xlink:href="../../BE03AB4A-F5E0-4685-80C7-20DCBC62631F/assets/574DCE55A4CF432400CBDDDE1DFDFC9B.jpeg" width="2048.00" height="1536.00" transform="matrix(0.50, 0.00, -0.00, -0.50, 0.0, 768.0)"></image></g></g><g><clipPath id="clip0x600002eab1c0"><path d="M 13.6 85.0 L 353.1 85.0 L 353.1 683.0 L 13.6 683.0 Z M 13.6 85.0 "></path></clipPath><g clip-path="url(#clip0x600002eab1c0)"><image xlink:href="../../BE03AB4A-F5E0-4685-80C7-20DCBC62631F/assets/E5BC6485FDBC90128B240599589CBB31.png" width="2326.00" height="4096.00" transform="matrix(0.15, 0.00, -0.00, -0.15, 14.0, 683.0)"></image></g></g><g><clipPath id="clip0x6080030bb3c0"><path d="M 70.2 540.4 L 304.7 540.4 L 304.7 595.6 L 70.2 595.6 Z M 70.2 540.4 "></path></clipPath><g clip-path="url(#clip0x6080030bb3c0)"><text xml:space="preserve" font-family="GillSans-Light,Gill Sans" font-size="32.0" fill="#525252" transform="matrix(1.00, 0.00, -0.00, -1.00, 102.7, 557.1)">R</text><text xml:space="preserve" font-family="GillSans-Light,Gill Sans" font-size="32.0" fill="#525252" transform="matrix(1.00, 0.00, -0.00, -1.00, 121.0, 557.1)">i</text><text xml:space="preserve" font-family="GillSans-Light,Gill Sans" font-size="32.0" fill="#525252" transform="matrix(1.00, 0.00, -0.00, -1.00, 127.1, 557.1)">c</text><text xml:space="preserve" font-family="GillSans-Light,Gill Sans" font-size="32.0" fill="#525252" transform="matrix(1.00, 0.00, -0.00, -1.00, 140.4, 557.1)">e</text><text xml:space="preserve" font-family="GillSans-Light,Gill Sans" font-size="32.0" fill="#525252" transform="matrix(1.00, 0.00, -0.00, -1.00, 155.7, 557.1)"> </text><text xml:space="preserve" font-family="GillSans-Light,Gill Sans" font-size="32.0" fill="#525252" transform="matrix(1.00, 0.00, -0.00, -1.00, 164.6, 557.1)">F</text><text xml:space="preserve" font-family="GillSans-Light,Gill Sans" font-size="32.0" fill="#525252" transform="matrix(1.00, 0.00, -0.00, -1.00, 178.6, 557.1)">e</text><text xml:space="preserve" font-family="GillSans-Light,Gill Sans" font-size="32.0" fill="#525252" transform="matrix(1.00, 0.00, -0.00, -1.00, 194.0, 557.1)">r</text><text xml:space="preserve" font-family="GillSans-Light,Gill Sans" font-size="32.0" fill="#525252" transform="matrix(1.00, 0.00, -0.00, -1.00, 207.2, 557.1)">t</text><text xml:space="preserve" font-family="GillSans-Light,Gill Sans" font-size="32.0" fill="#525252" transform="matrix(1.00, 0.00, -0.00, -1.00, 216.8, 557.1)">i</text><text xml:space="preserve" font-family="GillSans-Light,Gill Sans" font-size="32.0" fill="#525252" transform="matrix(1.00, 0.00, -0.00, -1.00, 222.8, 557.1)">l</text><text xml:space="preserve" font-family="GillSans-Light,Gill Sans" font-size="32.0" fill="#525252" transform="matrix(1.00, 0.00, -0.00, -1.00, 228.9, 557.1)">i</text><text xml:space="preserve" font-family="GillSans-Light,Gill Sans" font-size="32.0" fill="#525252" transform="matrix(1.00, 0.00, -0.00, -1.00, 234.9, 557.1)">s</text><text xml:space="preserve" font-family="GillSans-Light,Gill Sans" font-size="32.0" fill="#525252" transform="matrix(1.00, 0.00, -0.00, -1.00, 246.2, 557.1)">e</text><text xml:space="preserve" font-family="GillSans-Light,Gill Sans" font-size="32.0" fill="#525252" transform="matrix(1.00, 0.00, -0.00, -1.00, 261.5, 557.1)">r</text></g></g><g><clipPath id="clip0x6080030b9020"><path d="M 48.3 550.2 L 84.7 550.2 L 84.7 586.5 L 48.3 586.5 Z M 48.3 550.2 "></path></clipPath><g clip-path="url(#clip0x6080030b9020)"><image xlink:href="../../BE03AB4A-F5E0-4685-80C7-20DCBC62631F/assets/860D9470BEBE730C4B6C8AC19D18E4A1.png" width="128.00" height="128.00" transform="matrix(0.29, 0.00, -0.00, -0.29, 48.0, 587.0)"></image></g></g><g><clipPath id="clip0x600002eab220"><path d="M 32.3 533.8 L 334.4 533.8 L 334.4 537.8 L 32.3 537.8 Z M 32.3 533.8 "></path></clipPath><g clip-path="url(#clip0x600002eab220)"><path d="M -0.3 -0.2 L 299.7 -0.2 " fill="none" stroke="#595E5D" stroke-width="2.00" transform="matrix(1.00, 0.00, 0.00, -1.00, 33.3, 535.8)"></path></g></g><g><clipPath id="clip0x600002eab640"><path d="M 45.1 439.4 L 321.5 439.4 L 321.5 523.5 L 45.1 523.5 Z M 45.1 439.4 "></path></clipPath><g clip-path="url(#clip0x600002eab640)"><image xlink:href="../../9E25F6C6-3563-4F74-86FE-AA991374A0C7/assets/FF242FA7B8240E9CE62FEFBAEF03CC7F.png" width="274.00" height="66.00" transform="matrix(1.00, 0.00, -0.00, -1.00, 46.1, 522.5)" opacity="0.50"></image><path d="M 51.0 519.0 L 316.0 519.0 L 316.0 464.0 L 51.0 464.0 Z M 51.1 519.5 " fill="#78889F"></path><image xlink:href="../../9E25F6C6-3563-4F74-86FE-AA991374A0C7/assets/FDCC4368E40324C536F64B165110F7A6.png" width="1102.00" height="98.00" transform="matrix(0.24, 0.00, -0.00, -0.24, 51.1, 463.7)"></image></g></g><g><clipPath id="clip0x6080030bb5a0"><path d="M 48.9 463.7 L 317.8 463.7 L 317.8 519.5 L 48.9 519.5 Z M 48.9 463.7 "></path></clipPath><g clip-path="url(#clip0x6080030bb5a0)"><text xml:space="preserve" font-family="Helvetica,Helvetica" font-size="25.0" fill="#FEFFFE" transform="matrix(1.00, 0.00, -0.00, -1.00, 126.6, 482.2)">V</text><text xml:space="preserve" font-family="Helvetica,Helvetica" font-size="25.0" fill="#FEFFFE" transform="matrix(1.00, 0.00, -0.00, -1.00, 142.8, 482.2)">i</text><text xml:space="preserve" font-family="Helvetica,Helvetica" font-size="25.0" fill="#FEFFFE" transform="matrix(1.00, 0.00, -0.00, -1.00, 148.4, 482.2)">d</text><text xml:space="preserve" font-family="Helvetica,Helvetica" font-size="25.0" fill="#FEFFFE" transform="matrix(1.00, 0.00, -0.00, -1.00, 162.3, 482.2)">e</text><text xml:space="preserve" font-family="Helvetica,Helvetica" font-size="25.0" fill="#FEFFFE" transform="matrix(1.00, 0.00, -0.00, -1.00, 176.2, 482.2)">o</text><text xml:space="preserve" font-family="Helvetica,Helvetica" font-size="25.0" fill="#FEFFFE" transform="matrix(1.00, 0.00, -0.00, -1.00, 190.1, 482.2)"> </text><text xml:space="preserve" font-family="Helvetica,Helvetica" font-size="25.0" fill="#FEFFFE" transform="matrix(1.00, 0.00, -0.00, -1.00, 197.0, 482.2)">-</text><text xml:space="preserve" font-family="Helvetica,Helvetica" font-size="25.0" fill="#FEFFFE" transform="matrix(1.00, 0.00, -0.00, -1.00, 205.4, 482.2)"> </text><text xml:space="preserve" font-family="Helvetica,Helvetica" font-size="25.0" fill="#FEFFFE" transform="matrix(1.00, 0.00, -0.00, -1.00, 212.3, 482.2)">#</text><text xml:space="preserve" font-family="Helvetica,Helvetica" font-size="25.0" fill="#FEFFFE" transform="matrix(1.00, 0.00, -0.00, -1.00, 226.2, 482.2)">1</text></g></g><g><clipPath id="clip0x6080030bbd20"><path d="M 45.1 368.3 L 321.5 368.3 L 321.5 452.4 L 45.1 452.4 Z M 45.1 368.3 "></path></clipPath><g clip-path="url(#clip0x6080030bbd20)"><image xlink:href="../../9E25F6C6-3563-4F74-86FE-AA991374A0C7/assets/E94812303A510FA8D665D95324486A12.png" width="274.00" height="66.00" transform="matrix(1.00, 0.00, -0.00, -1.00, 46.1, 451.4)" opacity="0.50"></image><path d="M 51.0 448.0 L 316.0 448.0 L 316.0 393.0 L 51.0 393.0 Z M 51.1 448.4 " fill="#78889F"></path><image xlink:href="../../9E25F6C6-3563-4F74-86FE-AA991374A0C7/assets/ADDDEA14E2DF6B49D8E8E9CC1C89A77D.png" width="1102.00" height="98.00" transform="matrix(0.24, 0.00, -0.00, -0.24, 51.1, 392.6)"></image></g></g><g><clipPath id="clip0x6080030bbd80"><path d="M 48.9 392.6 L 317.8 392.6 L 317.8 448.4 L 48.9 448.4 Z M 48.9 392.6 "></path></clipPath><g clip-path="url(#clip0x6080030bbd80)"><text xml:space="preserve" font-family="Helvetica,Helvetica" font-size="25.0" fill="#FEFFFE" transform="matrix(1.00, 0.00, -0.00, -1.00, 123.6, 411.1)">A</text><text xml:space="preserve" font-family="Helvetica,Helvetica" font-size="25.0" fill="#FEFFFE" transform="matrix(1.00, 0.00, -0.00, -1.00, 140.3, 411.1)">r</text><text xml:space="preserve" font-family="Helvetica,Helvetica" font-size="25.0" fill="#FEFFFE" transform="matrix(1.00, 0.00, -0.00, -1.00, 148.6, 411.1)">t</text><text xml:space="preserve" font-family="Helvetica,Helvetica" font-size="25.0" fill="#FEFFFE" transform="matrix(1.00, 0.00, -0.00, -1.00, 155.5, 411.1)">i</text><text xml:space="preserve" font-family="Helvetica,Helvetica" font-size="25.0" fill="#FEFFFE" transform="matrix(1.00, 0.00, -0.00, -1.00, 161.1, 411.1)">c</text><text xml:space="preserve" font-family="Helvetica,Helvetica" font-size="25.0" fill="#FEFFFE" transform="matrix(1.00, 0.00, -0.00, -1.00, 173.6, 411.1)">l</text><text xml:space="preserve" font-family="Helvetica,Helvetica" font-size="25.0" fill="#FEFFFE" transform="matrix(1.00, 0.00, -0.00, -1.00, 179.2, 411.1)">e</text><text xml:space="preserve" font-family="Helvetica,Helvetica" font-size="25.0" fill="#FEFFFE" transform="matrix(1.00, 0.00, -0.00, -1.00, 193.1, 411.1)"> </text><text xml:space="preserve" font-family="Helvetica,Helvetica" font-size="25.0" fill="#FEFFFE" transform="matrix(1.00, 0.00, -0.00, -1.00, 200.0, 411.1)">-</text><text xml:space="preserve" font-family="Helvetica,Helvetica" font-size="25.0" fill="#FEFFFE" transform="matrix(1.00, 0.00, -0.00, -1.00, 208.3, 411.1)"> </text><text xml:space="preserve" font-family="Helvetica,Helvetica" font-size="25.0" fill="#FEFFFE" transform="matrix(1.00, 0.00, -0.00, -1.00, 215.3, 411.1)">#</text><text xml:space="preserve" font-family="Helvetica,Helvetica" font-size="25.0" fill="#FEFFFE" transform="matrix(1.00, 0.00, -0.00, -1.00, 229.2, 411.1)">1</text></g></g><g><clipPath id="clip0x6080030bc5c0"><path d="M 672.4 85.0 L 1012.0 85.0 L 1012.0 683.0 L 672.4 683.0 Z M 672.4 85.0 "></path></clipPath><g clip-path="url(#clip0x6080030bc5c0)"><image xlink:href="../../BE03AB4A-F5E0-4685-80C7-20DCBC62631F/assets/E5BC6485FDBC90128B240599589CBB31.png" width="2326.00" height="4096.00" transform="matrix(0.15, 0.00, -0.00, -0.15, 672.0, 683.0)"></image></g></g><g><clipPath id="clip0x600002eab6a0"><path d="M 729.1 540.4 L 963.6 540.4 L 963.6 595.6 L 729.1 595.6 Z M 729.1 540.4 "></path></clipPath><g clip-path="url(#clip0x600002eab6a0)"><text xml:space="preserve" font-family="GillSans-Light,Gill Sans" font-size="32.0" fill="#525252" transform="matrix(1.00, 0.00, -0.00, -1.00, 761.6, 557.1)">R</text><text xml:space="preserve" font-family="GillSans-Light,Gill Sans" font-size="32.0" fill="#525252" transform="matrix(1.00, 0.00, -0.00, -1.00, 779.9, 557.1)">i</text><text xml:space="preserve" font-family="GillSans-Light,Gill Sans" font-size="32.0" fill="#525252" transform="matrix(1.00, 0.00, -0.00, -1.00, 785.9, 557.1)">c</text><text xml:space="preserve" font-family="GillSans-Light,Gill Sans" font-size="32.0" fill="#525252" transform="matrix(1.00, 0.00, -0.00, -1.00, 799.3, 557.1)">e</text><text xml:space="preserve" font-family="GillSans-Light,Gill Sans" font-size="32.0" fill="#525252" transform="matrix(1.00, 0.00, -0.00, -1.00, 814.6, 557.1)"> </text><text xml:space="preserve" font-family="GillSans-Light,Gill Sans" font-size="32.0" fill="#525252" transform="matrix(1.00, 0.00, -0.00, -1.00, 823.5, 557.1)">F</text><text xml:space="preserve" font-family="GillSans-Light,Gill Sans" font-size="32.0" fill="#525252" transform="matrix(1.00, 0.00, -0.00, -1.00, 837.5, 557.1)">e</text><text xml:space="preserve" font-family="GillSans-Light,Gill Sans" font-size="32.0" fill="#525252" transform="matrix(1.00, 0.00, -0.00, -1.00, 852.8, 557.1)">r</text><text xml:space="preserve" font-family="GillSans-Light,Gill Sans" font-size="32.0" fill="#525252" transform="matrix(1.00, 0.00, -0.00, -1.00, 866.1, 557.1)">t</text><text xml:space="preserve" font-family="GillSans-Light,Gill Sans" font-size="32.0" fill="#525252" transform="matrix(1.00, 0.00, -0.00, -1.00, 875.7, 557.1)">i</text><text xml:space="preserve" font-family="GillSans-Light,Gill Sans" font-size="32.0" fill="#525252" transform="matrix(1.00, 0.00, -0.00, -1.00, 881.7, 557.1)">l</text><text xml:space="preserve" font-family="GillSans-Light,Gill Sans" font-size="32.0" fill="#525252" transform="matrix(1.00, 0.00, -0.00, -1.00, 887.7, 557.1)">i</text><text xml:space="preserve" font-family="GillSans-Light,Gill Sans" font-size="32.0" fill="#525252" transform="matrix(1.00, 0.00, -0.00, -1.00, 893.8, 557.1)">s</text><text xml:space="preserve" font-family="GillSans-Light,Gill Sans" font-size="32.0" fill="#525252" transform="matrix(1.00, 0.00, -0.00, -1.00, 905.1, 557.1)">e</text><text xml:space="preserve" font-family="GillSans-Light,Gill Sans" font-size="32.0" fill="#525252" transform="matrix(1.00, 0.00, -0.00, -1.00, 920.4, 557.1)">r</text></g></g><g><clipPath id="clip0x600002eac300"><path d="M 691.2 536.8 L 993.3 536.8 L 993.3 540.8 L 691.2 540.8 Z M 691.2 536.8 "></path></clipPath><g clip-path="url(#clip0x600002eac300)"><path d="M -0.2 -0.2 L 299.8 -0.2 " fill="none" stroke="#595E5D" stroke-width="2.00" transform="matrix(1.00, 0.00, 0.00, -1.00, 692.2, 538.8)"></path></g></g><g><clipPath id="clip0x600002eac540"><path d="M 704.0 450.4 L 980.4 450.4 L 980.4 534.5 L 704.0 534.5 Z M 704.0 450.4 "></path></clipPath><g clip-path="url(#clip0x600002eac540)"><image xlink:href="../../9E25F6C6-3563-4F74-86FE-AA991374A0C7/assets/59D838C39AEEEC479EA127AB1F397FB8.png" width="274.00" height="66.00" transform="matrix(1.00, 0.00, -0.00, -1.00, 705.0, 533.5)" opacity="0.50"></image><path d="M 710.0 530.0 L 974.0 530.0 L 974.0 475.0 L 710.0 475.0 Z M 710.0 530.5 " fill="#78889F"></path><image xlink:href="../../9E25F6C6-3563-4F74-86FE-AA991374A0C7/assets/7B3C3EECDD0D2423F3880F0464D94944.png" width="1102.00" height="98.00" transform="matrix(0.24, 0.00, -0.00, -0.24, 710.0, 474.7)"></image></g></g><g><clipPath id="clip0x600002eac5a0"><path d="M 707.8 474.7 L 976.7 474.7 L 976.7 530.5 L 707.8 530.5 Z M 707.8 474.7 "></path></clipPath><g clip-path="url(#clip0x600002eac5a0)"><text xml:space="preserve" font-family="Helvetica,Helvetica" font-size="25.0" fill="#FEFFFE" transform="matrix(1.00, 0.00, -0.00, -1.00, 782.5, 493.2)">A</text><text xml:space="preserve" font-family="Helvetica,Helvetica" font-size="25.0" fill="#FEFFFE" transform="matrix(1.00, 0.00, -0.00, -1.00, 799.2, 493.2)">r</text><text xml:space="preserve" font-family="Helvetica,Helvetica" font-size="25.0" fill="#FEFFFE" transform="matrix(1.00, 0.00, -0.00, -1.00, 807.5, 493.2)">t</text><text xml:space="preserve" font-family="Helvetica,Helvetica" font-size="25.0" fill="#FEFFFE" transform="matrix(1.00, 0.00, -0.00, -1.00, 814.4, 493.2)">i</text><text xml:space="preserve" font-family="Helvetica,Helvetica" font-size="25.0" fill="#FEFFFE" transform="matrix(1.00, 0.00, -0.00, -1.00, 820.0, 493.2)">c</text><text xml:space="preserve" font-family="Helvetica,Helvetica" font-size="25.0" fill="#FEFFFE" transform="matrix(1.00, 0.00, -0.00, -1.00, 832.5, 493.2)">l</text><text xml:space="preserve" font-family="Helvetica,Helvetica" font-size="25.0" fill="#FEFFFE" transform="matrix(1.00, 0.00, -0.00, -1.00, 838.0, 493.2)">e</text><text xml:space="preserve" font-family="Helvetica,Helvetica" font-size="25.0" fill="#FEFFFE" transform="matrix(1.00, 0.00, -0.00, -1.00, 852.0, 493.2)"> </text><text xml:space="preserve" font-family="Helvetica,Helvetica" font-size="25.0" fill="#FEFFFE" transform="matrix(1.00, 0.00, -0.00, -1.00, 858.9, 493.2)">-</text><text xml:space="preserve" font-family="Helvetica,Helvetica" font-size="25.0" fill="#FEFFFE" transform="matrix(1.00, 0.00, -0.00, -1.00, 867.2, 493.2)"> </text><text xml:space="preserve" font-family="Helvetica,Helvetica" font-size="25.0" fill="#FEFFFE" transform="matrix(1.00, 0.00, -0.00, -1.00, 874.2, 493.2)">#</text><text xml:space="preserve" font-family="Helvetica,Helvetica" font-size="25.0" fill="#FEFFFE" transform="matrix(1.00, 0.00, -0.00, -1.00, 888.1, 493.2)">1</text></g></g><g><clipPath id="clip0x600002eacde0"><path d="M 704.0 379.6 L 980.4 379.6 L 980.4 463.7 L 704.0 463.7 Z M 704.0 379.6 "></path></clipPath><g clip-path="url(#clip0x600002eacde0)"><image xlink:href="../../9E25F6C6-3563-4F74-86FE-AA991374A0C7/assets/1F5921FC1A158532B2019B34AECBEC6F.png" width="274.00" height="66.00" transform="matrix(1.00, 0.00, -0.00, -1.00, 705.0, 462.7)" opacity="0.50"></image><path d="M 710.0 460.0 L 974.0 460.0 L 974.0 404.0 L 710.0 404.0 Z M 710.0 459.7 " fill="#79754B"></path><image xlink:href="../../9E25F6C6-3563-4F74-86FE-AA991374A0C7/assets/0ABBAB090DCB972657327F7194CCE18A.png" width="1102.00" height="98.00" transform="matrix(0.24, 0.00, -0.00, -0.24, 710.0, 403.9)"></image></g></g><g><clipPath id="clip0x6080030bc980"><path d="M 707.8 403.9 L 976.7 403.9 L 976.7 459.7 L 707.8 459.7 Z M 707.8 403.9 "></path></clipPath><g clip-path="url(#clip0x6080030bc980)"><text xml:space="preserve" font-family="Helvetica,Helvetica" font-size="25.0" fill="#FEFFFE" transform="matrix(1.00, 0.00, -0.00, -1.00, 785.5, 422.4)">V</text><text xml:space="preserve" font-family="Helvetica,Helvetica" font-size="25.0" fill="#FEFFFE" transform="matrix(1.00, 0.00, -0.00, -1.00, 801.7, 422.4)">i</text><text xml:space="preserve" font-family="Helvetica,Helvetica" font-size="25.0" fill="#FEFFFE" transform="matrix(1.00, 0.00, -0.00, -1.00, 807.3, 422.4)">d</text><text xml:space="preserve" font-family="Helvetica,Helvetica" font-size="25.0" fill="#FEFFFE" transform="matrix(1.00, 0.00, -0.00, -1.00, 821.2, 422.4)">e</text><text xml:space="preserve" font-family="Helvetica,Helvetica" font-size="25.0" fill="#FEFFFE" transform="matrix(1.00, 0.00, -0.00, -1.00, 835.1, 422.4)">o</text><text xml:space="preserve" font-family="Helvetica,Helvetica" font-size="25.0" fill="#FEFFFE" transform="matrix(1.00, 0.00, -0.00, -1.00, 849.0, 422.4)"> </text><text xml:space="preserve" font-family="Helvetica,Helvetica" font-size="25.0" fill="#FEFFFE" transform="matrix(1.00, 0.00, -0.00, -1.00, 855.9, 422.4)">-</text><text xml:space="preserve" font-family="Helvetica,Helvetica" font-size="25.0" fill="#FEFFFE" transform="matrix(1.00, 0.00, -0.00, -1.00, 864.2, 422.4)"> </text><text xml:space="preserve" font-family="Helvetica,Helvetica" font-size="25.0" fill="#FEFFFE" transform="matrix(1.00, 0.00, -0.00, -1.00, 871.2, 422.4)">#</text><text xml:space="preserve" font-family="Helvetica,Helvetica" font-size="25.0" fill="#FEFFFE" transform="matrix(1.00, 0.00, -0.00, -1.00, 885.1, 422.4)">3</text></g></g><g><clipPath id="clip0x6080030bcf20"><path d="M 704.0 309.4 L 980.4 309.4 L 980.4 393.5 L 704.0 393.5 Z M 704.0 309.4 "></path></clipPath><g clip-path="url(#clip0x6080030bcf20)"><image xlink:href="../../9E25F6C6-3563-4F74-86FE-AA991374A0C7/assets/9DA99B00770E0AE96F14D1B979D286AF.png" width="274.00" height="66.00" transform="matrix(1.00, 0.00, -0.00, -1.00, 705.0, 392.5)" opacity="0.50"></image><path d="M 710.0 390.0 L 974.0 390.0 L 974.0 334.0 L 710.0 334.0 Z M 710.0 389.5 " fill="#79754B"></path><image xlink:href="../../9E25F6C6-3563-4F74-86FE-AA991374A0C7/assets/2ED8A9FFE9A7409BA806FB70A4BA5215.png" width="1102.00" height="98.00" transform="matrix(0.24, 0.00, -0.00, -0.24, 710.0, 333.8)"></image></g></g><g><clipPath id="clip0x600002ead140"><path d="M 707.8 333.8 L 976.7 333.8 L 976.7 389.5 L 707.8 389.5 Z M 707.8 333.8 "></path></clipPath><g clip-path="url(#clip0x600002ead140)"><text xml:space="preserve" font-family="Helvetica,Helvetica" font-size="25.0" fill="#FEFFFE" transform="matrix(1.00, 0.00, -0.00, -1.00, 786.0, 352.3)">N</text><text xml:space="preserve" font-family="Helvetica,Helvetica" font-size="25.0" fill="#FEFFFE" transform="matrix(1.00, 0.00, -0.00, -1.00, 804.0, 352.3)">e</text><text xml:space="preserve" font-family="Helvetica,Helvetica" font-size="25.0" fill="#FEFFFE" transform="matrix(1.00, 0.00, -0.00, -1.00, 817.9, 352.3)">w</text><text xml:space="preserve" font-family="Helvetica,Helvetica" font-size="25.0" fill="#FEFFFE" transform="matrix(1.00, 0.00, -0.00, -1.00, 836.0, 352.3)">s</text><text xml:space="preserve" font-family="Helvetica,Helvetica" font-size="25.0" fill="#FEFFFE" transform="matrix(1.00, 0.00, -0.00, -1.00, 848.5, 352.3)"> </text><text xml:space="preserve" font-family="Helvetica,Helvetica" font-size="25.0" fill="#FEFFFE" transform="matrix(1.00, 0.00, -0.00, -1.00, 855.4, 352.3)">-</text><text xml:space="preserve" font-family="Helvetica,Helvetica" font-size="25.0" fill="#FEFFFE" transform="matrix(1.00, 0.00, -0.00, -1.00, 863.7, 352.3)"> </text><text xml:space="preserve" font-family="Helvetica,Helvetica" font-size="25.0" fill="#FEFFFE" transform="matrix(1.00, 0.00, -0.00, -1.00, 870.7, 352.3)">#</text><text xml:space="preserve" font-family="Helvetica,Helvetica" font-size="25.0" fill="#FEFFFE" transform="matrix(1.00, 0.00, -0.00, -1.00, 884.6, 352.3)">1</text></g></g><g><clipPath id="clip0x600002ead860"><path d="M 704.0 239.6 L 980.4 239.6 L 980.4 323.7 L 704.0 323.7 Z M 704.0 239.6 "></path></clipPath><g clip-path="url(#clip0x600002ead860)"><image xlink:href="../../9E25F6C6-3563-4F74-86FE-AA991374A0C7/assets/2CF037C31040B472E1D6A26C164F44E5.png" width="274.00" height="66.00" transform="matrix(1.00, 0.00, -0.00, -1.00, 705.0, 322.7)" opacity="0.50"></image><path d="M 710.0 320.0 L 974.0 320.0 L 974.0 264.0 L 710.0 264.0 Z M 710.0 319.7 " fill="#740C00"></path><image xlink:href="../../9E25F6C6-3563-4F74-86FE-AA991374A0C7/assets/B359C179179A703C7CE7131B27940097.png" width="1102.00" height="98.00" transform="matrix(0.24, 0.00, -0.00, -0.24, 710.0, 263.9)"></image></g></g><g><clipPath id="clip0x6080030bcfe0"><path d="M 707.8 263.9 L 976.7 263.9 L 976.7 319.7 L 707.8 319.7 Z M 707.8 263.9 "></path></clipPath><g clip-path="url(#clip0x6080030bcfe0)"><text xml:space="preserve" font-family="Helvetica,Helvetica" font-size="25.0" fill="#FEFFFE" transform="matrix(1.00, 0.00, -0.00, -1.00, 785.5, 282.4)">V</text><text xml:space="preserve" font-family="Helvetica,Helvetica" font-size="25.0" fill="#FEFFFE" transform="matrix(1.00, 0.00, -0.00, -1.00, 801.7, 282.4)">i</text><text xml:space="preserve" font-family="Helvetica,Helvetica" font-size="25.0" fill="#FEFFFE" transform="matrix(1.00, 0.00, -0.00, -1.00, 807.3, 282.4)">d</text><text xml:space="preserve" font-family="Helvetica,Helvetica" font-size="25.0" fill="#FEFFFE" transform="matrix(1.00, 0.00, -0.00, -1.00, 821.2, 282.4)">e</text><text xml:space="preserve" font-family="Helvetica,Helvetica" font-size="25.0" fill="#FEFFFE" transform="matrix(1.00, 0.00, -0.00, -1.00, 835.1, 282.4)">o</text><text xml:space="preserve" font-family="Helvetica,Helvetica" font-size="25.0" fill="#FEFFFE" transform="matrix(1.00, 0.00, -0.00, -1.00, 849.0, 282.4)"> </text><text xml:space="preserve" font-family="Helvetica,Helvetica" font-size="25.0" fill="#FEFFFE" transform="matrix(1.00, 0.00, -0.00, -1.00, 855.9, 282.4)">-</text><text xml:space="preserve" font-family="Helvetica,Helvetica" font-size="25.0" fill="#FEFFFE" transform="matrix(1.00, 0.00, -0.00, -1.00, 864.2, 282.4)"> </text><text xml:space="preserve" font-family="Helvetica,Helvetica" font-size="25.0" fill="#FEFFFE" transform="matrix(1.00, 0.00, -0.00, -1.00, 871.2, 282.4)">#</text><text xml:space="preserve" font-family="Helvetica,Helvetica" font-size="25.0" fill="#FEFFFE" transform="matrix(1.00, 0.00, -0.00, -1.00, 885.1, 282.4)">5</text></g></g><g><clipPath id="clip0x6080030bd880"><path d="M 704.0 169.5 L 980.4 169.5 L 980.4 253.6 L 704.0 253.6 Z M 704.0 169.5 "></path></clipPath><g clip-path="url(#clip0x6080030bd880)"><image xlink:href="../../9E25F6C6-3563-4F74-86FE-AA991374A0C7/assets/0284A20F4B4574BFE101FE5E7E552B67.png" width="274.00" height="66.00" transform="matrix(1.00, 0.00, -0.00, -1.00, 705.0, 252.6)" opacity="0.50"></image><path d="M 710.0 250.0 L 974.0 250.0 L 974.0 194.0 L 710.0 194.0 Z M 710.0 249.6 " fill="#740C00"></path><image xlink:href="../../9E25F6C6-3563-4F74-86FE-AA991374A0C7/assets/BAD160DF3A10EF3F9902C273B24A50DA.png" width="1102.00" height="98.00" transform="matrix(0.24, 0.00, -0.00, -0.24, 710.0, 193.8)"></image></g></g><g><clipPath id="clip0x6080030bd8e0"><path d="M 707.8 193.8 L 976.7 193.8 L 976.7 249.6 L 707.8 249.6 Z M 707.8 193.8 "></path></clipPath><g clip-path="url(#clip0x6080030bd8e0)"><text xml:space="preserve" font-family="Helvetica,Helvetica" font-size="25.0" fill="#FEFFFE" transform="matrix(1.00, 0.00, -0.00, -1.00, 782.5, 212.3)">A</text><text xml:space="preserve" font-family="Helvetica,Helvetica" font-size="25.0" fill="#FEFFFE" transform="matrix(1.00, 0.00, -0.00, -1.00, 799.2, 212.3)">r</text><text xml:space="preserve" font-family="Helvetica,Helvetica" font-size="25.0" fill="#FEFFFE" transform="matrix(1.00, 0.00, -0.00, -1.00, 807.5, 212.3)">t</text><text xml:space="preserve" font-family="Helvetica,Helvetica" font-size="25.0" fill="#FEFFFE" transform="matrix(1.00, 0.00, -0.00, -1.00, 814.4, 212.3)">i</text><text xml:space="preserve" font-family="Helvetica,Helvetica" font-size="25.0" fill="#FEFFFE" transform="matrix(1.00, 0.00, -0.00, -1.00, 820.0, 212.3)">c</text><text xml:space="preserve" font-family="Helvetica,Helvetica" font-size="25.0" fill="#FEFFFE" transform="matrix(1.00, 0.00, -0.00, -1.00, 832.5, 212.3)">l</text><text xml:space="preserve" font-family="Helvetica,Helvetica" font-size="25.0" fill="#FEFFFE" transform="matrix(1.00, 0.00, -0.00, -1.00, 838.0, 212.3)">e</text><text xml:space="preserve" font-family="Helvetica,Helvetica" font-size="25.0" fill="#FEFFFE" transform="matrix(1.00, 0.00, -0.00, -1.00, 852.0, 212.3)"> </text><text xml:space="preserve" font-family="Helvetica,Helvetica" font-size="25.0" fill="#FEFFFE" transform="matrix(1.00, 0.00, -0.00, -1.00, 858.9, 212.3)">-</text><text xml:space="preserve" font-family="Helvetica,Helvetica" font-size="25.0" fill="#FEFFFE" transform="matrix(1.00, 0.00, -0.00, -1.00, 867.2, 212.3)"> </text><text xml:space="preserve" font-family="Helvetica,Helvetica" font-size="25.0" fill="#FEFFFE" transform="matrix(1.00, 0.00, -0.00, -1.00, 874.2, 212.3)">#</text><text xml:space="preserve" font-family="Helvetica,Helvetica" font-size="25.0" fill="#FEFFFE" transform="matrix(1.00, 0.00, -0.00, -1.00, 888.1, 212.3)">2</text></g></g><path d="M 0.4 0.0 L 247.3 0.0 L 248.4 0.0 " fill="none" stroke="#595E5D" stroke-width="2.00" transform="matrix(1.00, 0.00, 0.00, -1.00, 383.6, 384.0)"></path><path d="M 631.0 379.2 L 640.6 384.0 L 631.0 388.8 Z M 631.0 379.2 " fill="#595E5D"></path><text xml:space="preserve" font-family="GillSans-Light,Gill Sans" font-size="36.0" fill="#525252" transform="matrix(1.00, 0.00, -0.00, -1.00, 384.8, 404.8)">W</text><text xml:space="preserve" font-family="GillSans-Light,Gill Sans" font-size="36.0" fill="#525252" transform="matrix(1.00, 0.00, -0.00, -1.00, 421.9, 404.8)">i</text><text xml:space="preserve" font-family="GillSans-Light,Gill Sans" font-size="36.0" fill="#525252" transform="matrix(1.00, 0.00, -0.00, -1.00, 428.7, 404.8)">ï¬</text><text xml:space="preserve" font-family="GillSans-Light,Gill Sans" font-size="36.0" fill="#525252" transform="matrix(1.00, 0.00, -0.00, -1.00, 445.9, 404.8)"> </text><text xml:space="preserve" font-family="GillSans-Light,Gill Sans" font-size="36.0" fill="#525252" transform="matrix(1.00, 0.00, -0.00, -1.00, 455.9, 404.8)">I</text><text xml:space="preserve" font-family="GillSans-Light,Gill Sans" font-size="36.0" fill="#525252" transform="matrix(1.00, 0.00, -0.00, -1.00, 463.4, 404.8)">n</text><text xml:space="preserve" font-family="GillSans-Light,Gill Sans" font-size="36.0" fill="#525252" transform="matrix(1.00, 0.00, -0.00, -1.00, 481.1, 404.8)">t</text><text xml:space="preserve" font-family="GillSans-Light,Gill Sans" font-size="36.0" fill="#525252" transform="matrix(1.00, 0.00, -0.00, -1.00, 491.9, 404.8)">r</text><text xml:space="preserve" font-family="GillSans-Light,Gill Sans" font-size="36.0" fill="#525252" transform="matrix(1.00, 0.00, -0.00, -1.00, 504.8, 404.8)">a</text><text xml:space="preserve" font-family="GillSans-Light,Gill Sans" font-size="36.0" fill="#525252" transform="matrix(1.00, 0.00, -0.00, -1.00, 520.2, 404.8)">n</text><text xml:space="preserve" font-family="GillSans-Light,Gill Sans" font-size="36.0" fill="#525252" transform="matrix(1.00, 0.00, -0.00, -1.00, 537.8, 404.8)">e</text><text xml:space="preserve" font-family="GillSans-Light,Gill Sans" font-size="36.0" fill="#525252" transform="matrix(1.00, 0.00, -0.00, -1.00, 555.1, 404.8)">t</text><text xml:space="preserve" font-family="GillSans-Light,Gill Sans" font-size="36.0" fill="#525252" transform="matrix(1.00, 0.00, -0.00, -1.00, 565.9, 404.8)">w</text><text xml:space="preserve" font-family="GillSans-Light,Gill Sans" font-size="36.0" fill="#525252" transform="matrix(1.00, 0.00, -0.00, -1.00, 590.9, 404.8)">o</text><text xml:space="preserve" font-family="GillSans-Light,Gill Sans" font-size="36.0" fill="#525252" transform="matrix(1.00, 0.00, -0.00, -1.00, 610.4, 404.8)">r</text><text xml:space="preserve" font-family="GillSans-Light,Gill Sans" font-size="36.0" fill="#525252" transform="matrix(1.00, 0.00, -0.00, -1.00, 623.8, 404.8)">k</text></g></svg>